<svg id="visual" viewBox="0 0 900 600" width="900" height="600" xmlns="http://www.w3.org/2000/svg" xmlns:xlink="http://www.w3.org/1999/xlink" version="1.1"><rect x="0" y="0" width="900" height="600" fill="#141414"></rect><defs><linearGradient id="grad1_0" x1="33.3%" y1="0%" x2="100%" y2="100%"><stop offset="20%" stop-color="#c5266c" stop-opacity="1"></stop><stop offset="80%" stop-color="#c5266c" stop-opacity="1"></stop></linearGradient></defs><defs><linearGradient id="grad1_1" x1="33.3%" y1="0%" x2="100%" y2="100%"><stop offset="20%" stop-color="#c5266c" stop-opacity="1"></stop><stop offset="80%" stop-color="#a9285e" stop-opacity="1"></stop></linearGradient></defs><defs><linearGradient id="grad1_2" x1="33.3%" y1="0%" x2="100%" y2="100%"><stop offset="20%" stop-color="#8e2851" stop-opacity="1"></stop><stop offset="80%" stop-color="#a9285e" stop-opacity="1"></stop></linearGradient></defs><defs><linearGradient id="grad1_3" x1="33.3%" y1="0%" x2="100%" y2="100%"><stop offset="20%" stop-color="#8e2851" stop-opacity="1"></stop><stop offset="80%" stop-color="#742644" stop-opacity="1"></stop></linearGradient></defs><defs><linearGradient id="grad1_4" x1="33.3%" y1="0%" x2="100%" y2="100%"><stop offset="20%" stop-color="#5b2437" stop-opacity="1"></stop><stop offset="80%" stop-color="#742644" stop-opacity="1"></stop></linearGradient></defs><defs><linearGradient id="grad1_5" x1="33.3%" y1="0%" x2="100%" y2="100%"><stop offset="20%" stop-color="#5b2437" stop-opacity="1"></stop><stop offset="80%" stop-color="#43202b" stop-opacity="1"></stop></linearGradient></defs><defs><linearGradient id="grad1_6" x1="33.3%" y1="0%" x2="100%" y2="100%"><stop offset="20%" stop-color="#2b1a1f" stop-opacity="1"></stop><stop offset="80%" stop-color="#43202b" stop-opacity="1"></stop></linearGradient></defs><defs><linearGradient id="grad1_7" x1="33.3%" y1="0%" x2="100%" y2="100%"><stop offset="20%" stop-color="#2b1a1f" stop-opacity="1"></stop><stop offset="80%" stop-color="#141414" stop-opacity="1"></stop></linearGradient></defs><defs><linearGradient id="grad2_0" x1="0%" y1="0%" x2="66.7%" y2="100%"><stop offset="20%" stop-color="#c5266c" stop-opacity="1"></stop><stop offset="80%" stop-color="#c5266c" stop-opacity="1"></stop></linearGradient></defs><defs><linearGradient id="grad2_1" x1="0%" y1="0%" x2="66.7%" y2="100%"><stop offset="20%" stop-color="#a9285e" stop-opacity="1"></stop><stop offset="80%" stop-color="#c5266c" stop-opacity="1"></stop></linearGradient></defs><defs><linearGradient id="grad2_2" x1="0%" y1="0%" x2="66.7%" y2="100%"><stop offset="20%" stop-color="#a9285e" stop-opacity="1"></stop><stop offset="80%" stop-color="#8e2851" stop-opacity="1"></stop></linearGradient></defs><defs><linearGradient id="grad2_3" x1="0%" y1="0%" x2="66.7%" y2="100%"><stop offset="20%" stop-color="#742644" stop-opacity="1"></stop><stop offset="80%" stop-color="#8e2851" stop-opacity="1"></stop></linearGradient></defs><defs><linearGradient id="grad2_4" x1="0%" y1="0%" x2="66.7%" y2="100%"><stop offset="20%" stop-color="#742644" stop-opacity="1"></stop><stop offset="80%" stop-color="#5b2437" stop-opacity="1"></stop></linearGradient></defs><defs><linearGradient id="grad2_5" x1="0%" y1="0%" x2="66.7%" y2="100%"><stop offset="20%" stop-color="#43202b" stop-opacity="1"></stop><stop offset="80%" stop-color="#5b2437" stop-opacity="1"></stop></linearGradient></defs><defs><linearGradient id="grad2_6" x1="0%" y1="0%" x2="66.7%" y2="100%"><stop offset="20%" stop-color="#43202b" stop-opacity="1"></stop><stop offset="80%" stop-color="#2b1a1f" stop-opacity="1"></stop></linearGradient></defs><defs><linearGradient id="grad2_7" x1="0%" y1="0%" x2="66.7%" y2="100%"><stop offset="20%" stop-color="#141414" stop-opacity="1"></stop><stop offset="80%" stop-color="#2b1a1f" stop-opacity="1"></stop></linearGradient></defs><g transform="translate(900, 0)"><path d="M0 216.3C-38.7 211.2 -77.4 206 -108.2 187.3C-138.9 168.7 -161.7 136.5 -178.4 103C-195.1 69.5 -205.7 34.8 -216.3 0L0 0Z" fill="#20171a"></path><path d="M0 189.3C-33.9 184.8 -67.7 180.3 -94.6 163.9C-121.6 147.6 -141.5 119.4 -156.1 90.1C-170.7 60.8 -180 30.4 -189.3 0L0 0Z" fill="#371d25"></path><path d="M0 162.2C-29 158.4 -58.1 154.5 -81.1 140.5C-104.2 126.5 -121.3 102.4 -133.8 77.3C-146.3 52.1 -154.3 26.1 -162.2 0L0 0Z" fill="#4f2231"></path><path d="M0 135.2C-24.2 132 -48.4 128.8 -67.6 117.1C-86.8 105.4 -101.1 85.3 -111.5 64.4C-121.9 43.5 -128.6 21.7 -135.2 0L0 0Z" fill="#68253d"></path><path d="M0 108.2C-19.4 105.6 -38.7 103 -54.1 93.7C-69.5 84.3 -80.9 68.2 -89.2 51.5C-97.6 34.8 -102.9 17.4 -108.2 0L0 0Z" fill="#81274a"></path><path d="M0 81.1C-14.5 79.2 -29 77.3 -40.6 70.3C-52.1 63.3 -60.6 51.2 -66.9 38.6C-73.2 26.1 -77.1 13 -81.1 0L0 0Z" fill="#9c2857"></path><path d="M0 54.1C-9.7 52.8 -19.4 51.5 -27 46.8C-34.7 42.2 -40.4 34.1 -44.6 25.8C-48.8 17.4 -51.4 8.7 -54.1 0L0 0Z" fill="#b72765"></path><path d="M0 27C-4.8 26.4 -9.7 25.8 -13.5 23.4C-17.4 21.1 -20.2 17.1 -22.3 12.9C-24.4 8.7 -25.7 4.3 -27 0L0 0Z" fill="#c5266c"></path></g><g transform="translate(0, 600)"><path d="M0 -216.3C38 -210.8 76 -205.2 108.2 -187.3C140.3 -169.5 166.6 -139.3 183.6 -106C200.6 -72.7 208.5 -36.4 216.3 0L0 0Z" fill="#20171a"></path><path d="M0 -189.3C33.3 -184.4 66.5 -179.6 94.6 -163.9C122.8 -148.3 145.7 -121.9 160.6 -92.8C175.6 -63.6 182.4 -31.8 189.3 0L0 0Z" fill="#371d25"></path><path d="M0 -162.2C28.5 -158.1 57 -153.9 81.1 -140.5C105.2 -127.1 124.9 -104.5 137.7 -79.5C150.5 -54.5 156.4 -27.3 162.2 0L0 0Z" fill="#4f2231"></path><path d="M0 -135.2C23.8 -131.7 47.5 -128.3 67.6 -117.1C87.7 -105.9 104.1 -87 114.7 -66.3C125.4 -45.5 130.3 -22.7 135.2 0L0 0Z" fill="#68253d"></path><path d="M0 -108.2C19 -105.4 38 -102.6 54.1 -93.7C70.1 -84.7 83.3 -69.6 91.8 -53C100.3 -36.4 104.2 -18.2 108.2 0L0 0Z" fill="#81274a"></path><path d="M0 -81.1C14.3 -79 28.5 -77 40.6 -70.3C52.6 -63.6 62.5 -52.2 68.8 -39.8C75.2 -27.3 78.2 -13.6 81.1 0L0 0Z" fill="#9c2857"></path><path d="M0 -54.1C9.5 -52.7 19 -51.3 27 -46.8C35.1 -42.4 41.6 -34.8 45.9 -26.5C50.2 -18.2 52.1 -9.1 54.1 0L0 0Z" fill="#b72765"></path><path d="M0 -27C4.8 -26.3 9.5 -25.7 13.5 -23.4C17.5 -21.2 20.8 -17.4 22.9 -13.3C25.1 -9.1 26.1 -4.5 27 0L0 0Z" fill="#c5266c"></path></g></svg>