<svg id="visual" viewBox="0 0 900 600" width="900" height="600" xmlns="http://www.w3.org/2000/svg" xmlns:xlink="http://www.w3.org/1999/xlink" version="1.1"><rect x="0" y="0" width="900" height="600" fill="#002233"></rect><defs><linearGradient id="grad1_0" x1="33.3%" y1="0%" x2="100%" y2="100%"><stop offset="20%" stop-color="#99ddff" stop-opacity="1"></stop><stop offset="80%" stop-color="#99ddff" stop-opacity="1"></stop></linearGradient></defs><defs><linearGradient id="grad1_1" x1="33.3%" y1="0%" x2="100%" y2="100%"><stop offset="20%" stop-color="#99ddff" stop-opacity="1"></stop><stop offset="80%" stop-color="#82bfdf" stop-opacity="1"></stop></linearGradient></defs><defs><linearGradient id="grad1_2" x1="33.3%" y1="0%" x2="100%" y2="100%"><stop offset="20%" stop-color="#6ba2c0" stop-opacity="1"></stop><stop offset="80%" stop-color="#82bfdf" stop-opacity="1"></stop></linearGradient></defs><defs><linearGradient id="grad1_3" x1="33.3%" y1="0%" x2="100%" y2="100%"><stop offset="20%" stop-color="#6ba2c0" stop-opacity="1"></stop><stop offset="80%" stop-color="#5586a2" stop-opacity="1"></stop></linearGradient></defs><defs><linearGradient id="grad1_4" x1="33.3%" y1="0%" x2="100%" y2="100%"><stop offset="20%" stop-color="#3f6b84" stop-opacity="1"></stop><stop offset="80%" stop-color="#5586a2" stop-opacity="1"></stop></linearGradient></defs><defs><linearGradient id="grad1_5" x1="33.3%" y1="0%" x2="100%" y2="100%"><stop offset="20%" stop-color="#3f6b84" stop-opacity="1"></stop><stop offset="80%" stop-color="#2a5168" stop-opacity="1"></stop></linearGradient></defs><defs><linearGradient id="grad1_6" x1="33.3%" y1="0%" x2="100%" y2="100%"><stop offset="20%" stop-color="#15394d" stop-opacity="1"></stop><stop offset="80%" stop-color="#2a5168" stop-opacity="1"></stop></linearGradient></defs><defs><linearGradient id="grad1_7" x1="33.3%" y1="0%" x2="100%" y2="100%"><stop offset="20%" stop-color="#15394d" stop-opacity="1"></stop><stop offset="80%" stop-color="#002233" stop-opacity="1"></stop></linearGradient></defs><defs><linearGradient id="grad2_0" x1="0%" y1="0%" x2="66.7%" y2="100%"><stop offset="20%" stop-color="#99ddff" stop-opacity="1"></stop><stop offset="80%" stop-color="#99ddff" stop-opacity="1"></stop></linearGradient></defs><defs><linearGradient id="grad2_1" x1="0%" y1="0%" x2="66.7%" y2="100%"><stop offset="20%" stop-color="#82bfdf" stop-opacity="1"></stop><stop offset="80%" stop-color="#99ddff" stop-opacity="1"></stop></linearGradient></defs><defs><linearGradient id="grad2_2" x1="0%" y1="0%" x2="66.7%" y2="100%"><stop offset="20%" stop-color="#82bfdf" stop-opacity="1"></stop><stop offset="80%" stop-color="#6ba2c0" stop-opacity="1"></stop></linearGradient></defs><defs><linearGradient id="grad2_3" x1="0%" y1="0%" x2="66.7%" y2="100%"><stop offset="20%" stop-color="#5586a2" stop-opacity="1"></stop><stop offset="80%" stop-color="#6ba2c0" stop-opacity="1"></stop></linearGradient></defs><defs><linearGradient id="grad2_4" x1="0%" y1="0%" x2="66.7%" y2="100%"><stop offset="20%" stop-color="#5586a2" stop-opacity="1"></stop><stop offset="80%" stop-color="#3f6b84" stop-opacity="1"></stop></linearGradient></defs><defs><linearGradient id="grad2_5" x1="0%" y1="0%" x2="66.7%" y2="100%"><stop offset="20%" stop-color="#2a5168" stop-opacity="1"></stop><stop offset="80%" stop-color="#3f6b84" stop-opacity="1"></stop></linearGradient></defs><defs><linearGradient id="grad2_6" x1="0%" y1="0%" x2="66.7%" y2="100%"><stop offset="20%" stop-color="#2a5168" stop-opacity="1"></stop><stop offset="80%" stop-color="#15394d" stop-opacity="1"></stop></linearGradient></defs><defs><linearGradient id="grad2_7" x1="0%" y1="0%" x2="66.7%" y2="100%"><stop offset="20%" stop-color="#002233" stop-opacity="1"></stop><stop offset="80%" stop-color="#15394d" stop-opacity="1"></stop></linearGradient></defs><g transform="translate(900, 0)"><path d="M0 378.6C-26 380.3 -51.9 382 -73.9 371.3C-95.8 360.6 -113.7 337.5 -133.9 323.4C-154.2 309.2 -176.8 304.1 -195.6 292.7C-214.3 281.2 -229.1 263.5 -249.6 249.6C-270.1 235.7 -296.4 225.8 -309.3 206.7C-322.2 187.6 -321.7 159.3 -327.1 135.5C-332.4 111.6 -343.5 92.1 -353.1 70.2C-362.6 48.4 -370.6 24.2 -378.6 0L0 0Z" fill="#092d40"></path><path d="M0 331.3C-22.7 332.8 -45.4 334.3 -64.6 324.9C-83.8 315.5 -99.5 295.3 -117.2 282.9C-134.9 270.6 -154.7 266.1 -171.1 256.1C-187.5 246.1 -200.4 230.5 -218.4 218.4C-236.4 206.3 -259.4 197.6 -270.6 180.8C-281.9 164.1 -281.5 139.4 -286.2 118.5C-290.8 97.6 -300.6 80.6 -308.9 61.5C-317.3 42.3 -324.3 21.2 -331.3 0L0 0Z" fill="#1f455a"></path><path d="M0 283.9C-19.5 285.2 -38.9 286.5 -55.4 278.5C-71.8 270.5 -85.3 253.1 -100.5 242.5C-115.7 231.9 -132.6 228.1 -146.7 219.5C-160.7 210.9 -171.8 197.6 -187.2 187.2C-202.6 176.8 -222.3 169.3 -232 155C-241.7 140.7 -241.3 119.5 -245.3 101.6C-249.3 83.7 -257.6 69.1 -264.8 52.7C-272 36.3 -278 18.1 -283.9 0L0 0Z" fill="#345e76"></path><path d="M0 236.6C-16.2 237.7 -32.5 238.8 -46.2 232.1C-59.9 225.4 -71 210.9 -83.7 202.1C-96.4 193.3 -110.5 190.1 -122.2 182.9C-133.9 175.8 -143.2 164.7 -156 156C-168.8 147.3 -185.3 141.1 -193.3 129.2C-201.4 117.2 -201.1 99.6 -204.4 84.7C-207.7 69.7 -214.7 57.6 -220.7 43.9C-226.6 30.2 -231.6 15.1 -236.6 0L0 0Z" fill="#4a7893"></path><path d="M0 189.3C-13 190.1 -26 191 -36.9 185.7C-47.9 180.3 -56.8 168.7 -67 161.7C-77.1 154.6 -88.4 152.1 -97.8 146.3C-107.1 140.6 -114.5 131.7 -124.8 124.8C-135.1 117.9 -148.2 112.9 -154.7 103.3C-161.1 93.8 -160.9 79.7 -163.5 67.7C-166.2 55.8 -171.8 46 -176.5 35.1C-181.3 24.2 -185.3 12.1 -189.3 0L0 0Z" fill="#6094b1"></path><path d="M0 142C-9.7 142.6 -19.5 143.3 -27.7 139.2C-35.9 135.2 -42.6 126.6 -50.2 121.3C-57.8 116 -66.3 114 -73.3 109.8C-80.4 105.5 -85.9 98.8 -93.6 93.6C-101.3 88.4 -111.2 84.7 -116 77.5C-120.8 70.3 -120.6 59.8 -122.6 50.8C-124.6 41.8 -128.8 34.5 -132.4 26.3C-136 18.1 -139 9.1 -142 0L0 0Z" fill="#76b0cf"></path><path d="M0 94.6C-6.5 95.1 -13 95.5 -18.5 92.8C-23.9 90.2 -28.4 84.4 -33.5 80.8C-38.6 77.3 -44.2 76 -48.9 73.2C-53.6 70.3 -57.3 65.9 -62.4 62.4C-67.5 58.9 -74.1 56.4 -77.3 51.7C-80.6 46.9 -80.4 39.8 -81.8 33.9C-83.1 27.9 -85.9 23 -88.3 17.6C-90.7 12.1 -92.7 6 -94.6 0L0 0Z" fill="#8dceef"></path><path d="M0 47.3C-3.2 47.5 -6.5 47.8 -9.2 46.4C-12 45.1 -14.2 42.2 -16.7 40.4C-19.3 38.7 -22.1 38 -24.4 36.6C-26.8 35.2 -28.6 32.9 -31.2 31.2C-33.8 29.5 -37.1 28.2 -38.7 25.8C-40.3 23.4 -40.2 19.9 -40.9 16.9C-41.5 13.9 -42.9 11.5 -44.1 8.8C-45.3 6 -46.3 3 -47.3 0L0 0Z" fill="#99ddff"></path></g><g transform="translate(0, 600)"><path d="M0 -378.6C22.3 -360.7 44.7 -342.9 66.5 -334.4C88.4 -326 109.8 -326.9 135.9 -328C161.9 -329 192.6 -330.1 210.3 -314.8C228.1 -299.4 232.9 -267.5 247.5 -247.5C262 -227.4 286.3 -219.2 304.3 -203.3C322.3 -187.5 334 -164 338.1 -140.1C342.3 -116.2 338.8 -91.9 344.3 -68.5C349.7 -45.1 364.2 -22.5 378.6 0L0 0Z" fill="#092d40"></path><path d="M0 -331.3C19.5 -315.6 39.1 -300 58.2 -292.6C77.3 -285.2 96.1 -286.1 118.9 -287C141.7 -287.9 168.5 -288.9 184 -275.4C199.6 -262 203.8 -234.1 216.6 -216.6C229.3 -199 250.5 -191.8 266.3 -177.9C282 -164 292.3 -143.5 295.9 -122.6C299.5 -101.6 296.4 -80.4 301.2 -59.9C306 -39.4 318.6 -19.7 331.3 0L0 0Z" fill="#1f455a"></path><path d="M0 -283.9C16.7 -270.6 33.5 -257.2 49.9 -250.8C66.3 -244.5 82.4 -245.2 101.9 -246C121.4 -246.8 144.4 -247.6 157.7 -236.1C171.1 -224.6 174.7 -200.7 185.6 -185.6C196.5 -170.6 214.7 -164.4 228.2 -152.5C241.7 -140.6 250.5 -123 253.6 -105C256.7 -87.1 254.1 -68.9 258.2 -51.4C262.3 -33.8 273.1 -16.9 283.9 0L0 0Z" fill="#345e76"></path><path d="M0 -236.6C14 -225.5 27.9 -214.3 41.6 -209C55.2 -203.7 68.6 -204.3 84.9 -205C101.2 -205.6 120.4 -206.3 131.5 -196.7C142.6 -187.1 145.6 -167.2 154.7 -154.7C163.8 -142.1 179 -137 190.2 -127.1C201.4 -117.2 208.8 -102.5 211.3 -87.5C213.9 -72.6 211.7 -57.4 215.2 -42.8C218.6 -28.2 227.6 -14.1 236.6 0L0 0Z" fill="#4a7893"></path><path d="M0 -189.3C11.2 -180.4 22.3 -171.4 33.3 -167.2C44.2 -163 54.9 -163.5 67.9 -164C80.9 -164.5 96.3 -165.1 105.2 -157.4C114 -149.7 116.5 -133.8 123.7 -123.7C131 -113.7 143.2 -109.6 152.2 -101.7C161.2 -93.7 167 -82 169.1 -70C171.1 -58.1 169.4 -45.9 172.1 -34.2C174.9 -22.5 182.1 -11.3 189.3 0L0 0Z" fill="#6094b1"></path><path d="M0 -142C8.4 -135.3 16.7 -128.6 24.9 -125.4C33.1 -122.2 41.2 -122.6 50.9 -123C60.7 -123.4 72.2 -123.8 78.9 -118C85.5 -112.3 87.3 -100.3 92.8 -92.8C98.3 -85.3 107.4 -82.2 114.1 -76.3C120.9 -70.3 125.3 -61.5 126.8 -52.5C128.3 -43.6 127 -34.5 129.1 -25.7C131.1 -16.9 136.6 -8.5 142 0L0 0Z" fill="#76b0cf"></path><path d="M0 -94.6C5.6 -90.2 11.2 -85.7 16.6 -83.6C22.1 -81.5 27.5 -81.7 34 -82C40.5 -82.3 48.1 -82.5 52.6 -78.7C57 -74.9 58.2 -66.9 61.9 -61.9C65.5 -56.9 71.6 -54.8 76.1 -50.8C80.6 -46.9 83.5 -41 84.5 -35C85.6 -29 84.7 -23 86.1 -17.1C87.4 -11.3 91 -5.6 94.6 0L0 0Z" fill="#8dceef"></path><path d="M0 -47.3C2.8 -45.1 5.6 -42.9 8.3 -41.8C11 -40.7 13.7 -40.9 17 -41C20.2 -41.1 24.1 -41.3 26.3 -39.3C28.5 -37.4 29.1 -33.4 30.9 -30.9C32.8 -28.4 35.8 -27.4 38 -25.4C40.3 -23.4 41.8 -20.5 42.3 -17.5C42.8 -14.5 42.3 -11.5 43 -8.6C43.7 -5.6 45.5 -2.8 47.3 0L0 0Z" fill="#99ddff"></path></g></svg>