<svg id="visual" viewBox="0 0 900 600" width="900" height="600" xmlns="http://www.w3.org/2000/svg" xmlns:xlink="http://www.w3.org/1999/xlink" version="1.1"><rect x="0" y="0" width="900" height="600" fill="#001220"></rect><g fill="#A7233A"><circle r="14" cx="375" cy="62"></circle><circle r="1" cx="71" cy="484"></circle><circle r="5" cx="606" cy="180"></circle><circle r="10" cx="458" cy="44"></circle><circle r="8" cx="573" cy="426"></circle><circle r="2" cx="774" cy="465"></circle><circle r="4" cx="282" cy="239"></circle><circle r="5" cx="517" cy="525"></circle><circle r="6" cx="816" cy="209"></circle><circle r="6" cx="704" cy="160"></circle><circle r="0" cx="623" cy="511"></circle><circle r="1" cx="619" cy="146"></circle><circle r="12" cx="51" cy="458"></circle><circle r="11" cx="19" cy="423"></circle><circle r="7" cx="388" cy="307"></circle><circle r="4" cx="728" cy="559"></circle><circle r="1" cx="750" cy="167"></circle><circle r="1" cx="530" cy="252"></circle><circle r="8" cx="330" cy="558"></circle><circle r="8" cx="325" cy="12"></circle><circle r="11" cx="617" cy="383"></circle><circle r="9" cx="566" cy="162"></circle><circle r="2" cx="12" cy="523"></circle><circle r="11" cx="635" cy="39"></circle><circle r="7" cx="272" cy="449"></circle><circle r="12" cx="740" cy="412"></circle><circle r="6" cx="60" cy="26"></circle><circle r="8" cx="628" cy="258"></circle><circle r="3" cx="301" cy="576"></circle><circle r="4" cx="49" cy="539"></circle><circle r="2" cx="303" cy="150"></circle><circle r="2" cx="222" cy="55"></circle><circle r="7" cx="235" cy="468"></circle><circle r="7" cx="511" cy="402"></circle><circle r="3" cx="847" cy="265"></circle><circle r="11" cx="757" cy="240"></circle><circle r="5" cx="75" cy="586"></circle><circle r="1" cx="166" cy="9"></circle><circle r="7" cx="796" cy="429"></circle><circle r="3" cx="112" cy="401"></circle><circle r="5" cx="703" cy="437"></circle><circle r="4" cx="836" cy="499"></circle><circle r="7" cx="374" cy="594"></circle><circle r="1" cx="599" cy="12"></circle><circle r="8" cx="493" cy="485"></circle><circle r="0" cx="855" cy="456"></circle><circle r="8" cx="678" cy="577"></circle><circle r="10" cx="111" cy="80"></circle><circle r="4" cx="157" cy="402"></circle><circle r="6" cx="860" cy="596"></circle><circle r="9" cx="510" cy="226"></circle><circle r="12" cx="245" cy="150"></circle><circle r="3" cx="667" cy="199"></circle><circle r="4" cx="282" cy="330"></circle><circle r="1" cx="123" cy="292"></circle><circle r="3" cx="147" cy="133"></circle><circle r="9" cx="543" cy="17"></circle><circle r="6" cx="610" cy="228"></circle><circle r="0" cx="594" cy="528"></circle><circle r="8" cx="450" cy="593"></circle><circle r="0" cx="678" cy="533"></circle><circle r="5" cx="731" cy="479"></circle><circle r="8" cx="374" cy="30"></circle><circle r="11" cx="848" cy="210"></circle><circle r="9" cx="478" cy="309"></circle><circle r="1" cx="504" cy="130"></circle><circle r="5" cx="300" cy="373"></circle><circle r="4" cx="192" cy="117"></circle><circle r="1" cx="217" cy="565"></circle><circle r="4" cx="855" cy="537"></circle><circle r="1" cx="125" cy="256"></circle><circle r="5" cx="290" cy="78"></circle><circle r="0" cx="778" cy="324"></circle><circle r="4" cx="559" cy="472"></circle><circle r="8" cx="322" cy="221"></circle><circle r="9" cx="781" cy="6"></circle><circle r="0" cx="252" cy="121"></circle><circle r="2" cx="158" cy="238"></circle><circle r="12" cx="738" cy="309"></circle><circle r="8" cx="264" cy="355"></circle><circle r="11" cx="702" cy="6"></circle><circle r="0" cx="407" cy="288"></circle><circle r="4" cx="86" cy="30"></circle><circle r="11" cx="430" cy="33"></circle><circle r="8" cx="797" cy="562"></circle><circle r="7" cx="876" cy="195"></circle><circle r="1" cx="136" cy="349"></circle><circle r="5" cx="695" cy="206"></circle><circle r="9" cx="315" cy="316"></circle><circle r="6" cx="620" cy="421"></circle><circle r="0" cx="529" cy="159"></circle><circle r="10" cx="314" cy="493"></circle><circle r="2" cx="703" cy="314"></circle><circle r="8" cx="122" cy="498"></circle><circle r="7" cx="373" cy="241"></circle><circle r="7" cx="637" cy="452"></circle><circle r="3" cx="197" cy="311"></circle><circle r="1" cx="460" cy="77"></circle><circle r="10" cx="419" cy="536"></circle><circle r="8" cx="517" cy="5"></circle><circle r="6" cx="432" cy="176"></circle><circle r="5" cx="155" cy="592"></circle><circle r="6" cx="848" cy="50"></circle><circle r="0" cx="130" cy="33"></circle><circle r="5" cx="436" cy="149"></circle><circle r="3" cx="15" cy="473"></circle><circle r="9" cx="251" cy="536"></circle><circle r="10" cx="888" cy="383"></circle><circle r="8" cx="599" cy="498"></circle><circle r="12" cx="462" cy="405"></circle><circle r="5" cx="331" cy="87"></circle><circle r="8" cx="728" cy="340"></circle><circle r="2" cx="175" cy="357"></circle><circle r="2" cx="362" cy="453"></circle><circle r="1" cx="225" cy="366"></circle><circle r="8" cx="252" cy="324"></circle><circle r="3" cx="340" cy="143"></circle><circle r="8" cx="85" cy="71"></circle><circle r="3" cx="796" cy="516"></circle><circle r="6" cx="668" cy="148"></circle><circle r="6" cx="601" cy="558"></circle><circle r="1" cx="440" cy="324"></circle><circle r="11" cx="58" cy="89"></circle><circle r="9" cx="890" cy="121"></circle><circle r="7" cx="594" cy="305"></circle><circle r="9" cx="690" cy="463"></circle><circle r="5" cx="434" cy="293"></circle><circle r="2" cx="11" cy="195"></circle><circle r="8" cx="244" cy="506"></circle><circle r="4" cx="522" cy="566"></circle><circle r="2" cx="57" cy="383"></circle><circle r="12" cx="618" cy="323"></circle><circle r="8" cx="80" cy="354"></circle><circle r="1" cx="879" cy="333"></circle><circle r="3" cx="186" cy="541"></circle><circle r="0" cx="228" cy="437"></circle><circle r="4" cx="852" cy="175"></circle><circle r="5" cx="705" cy="240"></circle><circle r="12" cx="853" cy="292"></circle><circle r="3" cx="329" cy="411"></circle><circle r="8" cx="190" cy="435"></circle><circle r="10" cx="47" cy="496"></circle><circle r="0" cx="251" cy="575"></circle><circle r="12" cx="289" cy="514"></circle><circle r="1" cx="763" cy="295"></circle><circle r="0" cx="378" cy="122"></circle><circle r="2" cx="53" cy="164"></circle><circle r="5" cx="343" cy="112"></circle><circle r="9" cx="481" cy="215"></circle><circle r="6" cx="205" cy="214"></circle><circle r="12" cx="4" cy="269"></circle><circle r="10" cx="329" cy="277"></circle><circle r="12" cx="313" cy="536"></circle><circle r="11" cx="879" cy="157"></circle><circle r="11" cx="205" cy="475"></circle><circle r="1" cx="367" cy="491"></circle><circle r="6" cx="821" cy="248"></circle><circle r="4" cx="495" cy="38"></circle><circle r="10" cx="189" cy="252"></circle><circle r="4" cx="674" cy="31"></circle><circle r="3" cx="843" cy="391"></circle><circle r="4" cx="558" cy="522"></circle><circle r="3" cx="229" cy="402"></circle><circle r="12" cx="677" cy="230"></circle><circle r="3" cx="470" cy="265"></circle><circle r="12" cx="873" cy="72"></circle><circle r="5" cx="247" cy="26"></circle><circle r="6" cx="199" cy="376"></circle><circle r="10" cx="521" cy="364"></circle><circle r="1" cx="449" cy="213"></circle><circle r="9" cx="546" cy="432"></circle><circle r="5" cx="470" cy="115"></circle><circle r="12" cx="547" cy="592"></circle><circle r="8" cx="520" cy="91"></circle><circle r="6" cx="416" cy="207"></circle><circle r="4" cx="419" cy="495"></circle><circle r="3" cx="375" cy="92"></circle><circle r="7" cx="97" cy="239"></circle><circle r="0" cx="606" cy="105"></circle><circle r="12" cx="160" cy="492"></circle><circle r="4" cx="842" cy="567"></circle><circle r="2" cx="372" cy="410"></circle><circle r="2" cx="278" cy="400"></circle><circle r="4" cx="212" cy="16"></circle><circle r="10" cx="539" cy="225"></circle><circle r="3" cx="576" cy="257"></circle><circle r="6" cx="271" cy="492"></circle><circle r="0" cx="671" cy="257"></circle><circle r="11" cx="241" cy="177"></circle><circle r="6" cx="697" cy="507"></circle><circle r="8" cx="793" cy="57"></circle><circle r="8" cx="673" cy="364"></circle><circle r="6" cx="775" cy="82"></circle><circle r="9" cx="82" cy="108"></circle><circle r="9" cx="223" cy="110"></circle><circle r="6" cx="742" cy="117"></circle><circle r="3" cx="776" cy="370"></circle><circle r="0" cx="354" cy="370"></circle><circle r="10" cx="668" cy="420"></circle><circle r="2" cx="52" cy="205"></circle><circle r="8" cx="316" cy="50"></circle><circle r="3" cx="447" cy="494"></circle><circle r="7" cx="864" cy="231"></circle><circle r="9" cx="86" cy="279"></circle><circle r="6" cx="17" cy="41"></circle><circle r="10" cx="505" cy="65"></circle><circle r="2" cx="214" cy="165"></circle><circle r="12" cx="427" cy="366"></circle><circle r="12" cx="391" cy="148"></circle><circle r="1" cx="42" cy="133"></circle><circle r="11" cx="35" cy="304"></circle><circle r="1" cx="125" cy="184"></circle><circle r="5" cx="818" cy="75"></circle><circle r="1" cx="47" cy="2"></circle><circle r="11" cx="732" cy="191"></circle><circle r="2" cx="461" cy="540"></circle><circle r="1" cx="649" cy="596"></circle><circle r="3" cx="16" cy="79"></circle><circle r="3" cx="2" cy="122"></circle><circle r="6" cx="380" cy="279"></circle><circle r="6" cx="584" cy="206"></circle><circle r="2" cx="744" cy="28"></circle><circle r="4" cx="818" cy="168"></circle><circle r="3" cx="754" cy="447"></circle><circle r="8" cx="736" cy="368"></circle><circle r="0" cx="778" cy="399"></circle><circle r="5" cx="646" cy="285"></circle><circle r="4" cx="359" cy="5"></circle><circle r="2" cx="184" cy="190"></circle><circle r="3" cx="95" cy="331"></circle><circle r="5" cx="571" cy="14"></circle><circle r="7" cx="210" cy="334"></circle><circle r="7" cx="78" cy="410"></circle><circle r="10" cx="700" cy="49"></circle><circle r="2" cx="92" cy="455"></circle><circle r="7" cx="319" cy="462"></circle><circle r="7" cx="348" cy="49"></circle><circle r="12" cx="401" cy="34"></circle><circle r="10" cx="236" cy="247"></circle><circle r="4" cx="23" cy="336"></circle><circle r="1" cx="593" cy="341"></circle><circle r="5" cx="64" cy="257"></circle><circle r="9" cx="186" cy="50"></circle><circle r="10" cx="227" cy="302"></circle><circle r="12" cx="249" cy="215"></circle><circle r="8" cx="749" cy="86"></circle><circle r="3" cx="777" cy="597"></circle><circle r="8" cx="24" cy="379"></circle><circle r="3" cx="805" cy="320"></circle><circle r="8" cx="154" cy="208"></circle><circle r="6" cx="532" cy="338"></circle><circle r="7" cx="99" cy="531"></circle><circle r="8" cx="421" cy="571"></circle><circle r="5" cx="143" cy="565"></circle><circle r="11" cx="305" cy="179"></circle><circle r="2" cx="705" cy="407"></circle><circle r="3" cx="365" cy="520"></circle><circle r="12" cx="644" cy="528"></circle><circle r="8" cx="784" cy="119"></circle><circle r="2" cx="544" cy="199"></circle><circle r="9" cx="550" cy="127"></circle><circle r="12" cx="645" cy="367"></circle><circle r="10" cx="12" cy="167"></circle><circle r="7" cx="386" cy="356"></circle><circle r="7" cx="199" cy="586"></circle><circle r="5" cx="415" cy="235"></circle><circle r="6" cx="896" cy="287"></circle><circle r="7" cx="651" cy="318"></circle><circle r="9" cx="415" cy="3"></circle><circle r="9" cx="568" cy="96"></circle><circle r="1" cx="513" cy="303"></circle><circle r="1" cx="573" cy="322"></circle><circle r="7" cx="617" cy="291"></circle><circle r="4" cx="431" cy="463"></circle><circle r="1" cx="90" cy="140"></circle><circle r="9" cx="479" cy="460"></circle><circle r="12" cx="571" cy="496"></circle><circle r="7" cx="704" cy="82"></circle><circle r="6" cx="594" cy="41"></circle><circle r="0" cx="279" cy="137"></circle><circle r="12" cx="272" cy="287"></circle><circle r="12" cx="260" cy="54"></circle><circle r="11" cx="816" cy="141"></circle><circle r="9" cx="397" cy="521"></circle><circle r="4" cx="865" cy="490"></circle><circle r="11" cx="850" cy="96"></circle><circle r="3" cx="354" cy="575"></circle><circle r="4" cx="323" cy="590"></circle><circle r="6" cx="779" cy="215"></circle><circle r="11" cx="494" cy="557"></circle><circle r="9" cx="626" cy="73"></circle><circle r="2" cx="468" cy="364"></circle><circle r="5" cx="565" cy="284"></circle><circle r="8" cx="466" cy="571"></circle><circle r="9" cx="821" cy="462"></circle><circle r="6" cx="592" cy="407"></circle><circle r="1" cx="27" cy="253"></circle><circle r="0" cx="120" cy="450"></circle><circle r="2" cx="244" cy="275"></circle><circle r="12" cx="41" cy="585"></circle><circle r="0" cx="112" cy="371"></circle><circle r="8" cx="297" cy="21"></circle><circle r="5" cx="174" cy="324"></circle><circle r="8" cx="767" cy="39"></circle><circle r="11" cx="747" cy="540"></circle><circle r="8" cx="651" cy="554"></circle><circle r="8" cx="672" cy="335"></circle><circle r="10" cx="493" cy="585"></circle><circle r="5" cx="142" cy="65"></circle><circle r="0" cx="421" cy="265"></circle><circle r="10" cx="585" cy="460"></circle><circle r="8" cx="48" cy="416"></circle><circle r="5" cx="543" cy="399"></circle><circle r="12" cx="396" cy="469"></circle><circle r="4" cx="580" cy="366"></circle><circle r="0" cx="165" cy="295"></circle><circle r="11" cx="727" cy="519"></circle><circle r="6" cx="100" cy="481"></circle><circle r="12" cx="467" cy="165"></circle><circle r="7" cx="815" cy="373"></circle><circle r="3" cx="438" cy="428"></circle><circle r="5" cx="822" cy="32"></circle><circle r="9" cx="533" cy="60"></circle><circle r="10" cx="5" cy="589"></circle><circle r="3" cx="149" cy="540"></circle><circle r="7" cx="177" cy="465"></circle><circle r="3" cx="897" cy="213"></circle><circle r="0" cx="713" cy="280"></circle><circle r="9" cx="562" cy="43"></circle><circle r="6" cx="418" cy="57"></circle><circle r="1" cx="659" cy="102"></circle><circle r="7" cx="180" cy="92"></circle><circle r="6" cx="851" cy="148"></circle><circle r="11" cx="109" cy="555"></circle><circle r="0" cx="185" cy="499"></circle><circle r="2" cx="877" cy="558"></circle><circle r="2" cx="151" cy="163"></circle><circle r="8" cx="272" cy="186"></circle><circle r="11" cx="81" cy="204"></circle><circle r="2" cx="874" cy="408"></circle><circle r="0" cx="302" cy="117"></circle><circle r="8" cx="116" cy="135"></circle><circle r="8" cx="839" cy="341"></circle><circle r="0" cx="716" cy="591"></circle><circle r="10" cx="394" cy="576"></circle><circle r="0" cx="120" cy="7"></circle><circle r="5" cx="361" cy="320"></circle><circle r="2" cx="624" cy="573"></circle><circle r="3" cx="149" cy="96"></circle><circle r="4" cx="535" cy="459"></circle><circle r="6" cx="590" cy="128"></circle><circle r="1" cx="443" cy="110"></circle><circle r="5" cx="371" cy="199"></circle><circle r="8" cx="897" cy="590"></circle><circle r="0" cx="413" cy="112"></circle><circle r="12" cx="619" cy="478"></circle><circle r="5" cx="899" cy="460"></circle><circle r="7" cx="835" cy="423"></circle><circle r="3" cx="340" cy="176"></circle><circle r="1" cx="155" cy="446"></circle><circle r="1" cx="668" cy="447"></circle><circle r="3" cx="489" cy="284"></circle><circle r="1" cx="286" cy="554"></circle><circle r="7" cx="300" cy="266"></circle><circle r="3" cx="774" cy="496"></circle><circle r="1" cx="763" cy="564"></circle><circle r="9" cx="638" cy="184"></circle><circle r="8" cx="298" cy="434"></circle><circle r="5" cx="481" cy="3"></circle><circle r="12" cx="654" cy="396"></circle><circle r="12" cx="515" cy="429"></circle><circle r="1" cx="355" cy="260"></circle><circle r="12" cx="460" cy="240"></circle><circle r="11" cx="455" cy="16"></circle><circle r="8" cx="669" cy="488"></circle><circle r="7" cx="732" cy="56"></circle><circle r="4" cx="704" cy="543"></circle><circle r="1" cx="125" cy="598"></circle><circle r="5" cx="115" cy="216"></circle><circle r="2" cx="42" cy="64"></circle><circle r="4" cx="369" cy="164"></circle><circle r="1" cx="895" cy="15"></circle><circle r="0" cx="72" cy="552"></circle><circle r="1" cx="541" cy="492"></circle><circle r="7" cx="692" cy="383"></circle><circle r="5" cx="788" cy="241"></circle><circle r="7" cx="732" cy="261"></circle><circle r="8" cx="745" cy="584"></circle><circle r="6" cx="716" cy="125"></circle><circle r="7" cx="406" cy="328"></circle><circle r="3" cx="899" cy="520"></circle><circle r="3" cx="637" cy="118"></circle><circle r="6" cx="634" cy="12"></circle><circle r="5" cx="400" cy="401"></circle><circle r="12" cx="142" cy="312"></circle><circle r="2" cx="795" cy="267"></circle><circle r="6" cx="488" cy="520"></circle><circle r="0" cx="51" cy="327"></circle><circle r="7" cx="886" cy="432"></circle><circle r="0" cx="673" cy="294"></circle><circle r="6" cx="556" cy="566"></circle><circle r="1" cx="19" cy="549"></circle><circle r="10" cx="246" cy="92"></circle><circle r="4" cx="291" cy="208"></circle><circle r="2" cx="77" cy="177"></circle><circle r="5" cx="575" cy="594"></circle><circle r="1" cx="492" cy="93"></circle><circle r="3" cx="332" cy="518"></circle><circle r="3" cx="663" cy="72"></circle><circle r="2" cx="665" cy="2"></circle><circle r="2" cx="634" cy="211"></circle><circle r="4" cx="783" cy="155"></circle><circle r="1" cx="814" cy="585"></circle><circle r="6" cx="499" cy="336"></circle><circle r="2" cx="823" cy="113"></circle><circle r="10" cx="485" cy="432"></circle><circle r="7" cx="801" cy="490"></circle><circle r="11" cx="807" cy="401"></circle><circle r="8" cx="412" cy="429"></circle><circle r="0" cx="9" cy="227"></circle><circle r="6" cx="186" cy="155"></circle><circle r="8" cx="683" cy="124"></circle><circle r="2" cx="492" cy="155"></circle><circle r="8" cx="894" cy="258"></circle><circle r="4" cx="199" cy="405"></circle><circle r="12" cx="567" cy="232"></circle><circle r="0" cx="829" cy="525"></circle><circle r="11" cx="532" cy="281"></circle><circle r="8" cx="782" cy="183"></circle><circle r="8" cx="254" cy="424"></circle><circle r="0" cx="496" cy="193"></circle><circle r="2" cx="200" cy="281"></circle><circle r="11" cx="224" cy="526"></circle><circle r="10" cx="62" cy="293"></circle><circle r="6" cx="434" cy="401"></circle><circle r="12" cx="1" cy="443"></circle><circle r="2" cx="228" cy="598"></circle><circle r="5" cx="593" cy="71"></circle><circle r="0" cx="109" cy="54"></circle><circle r="11" cx="503" cy="257"></circle><circle r="12" cx="336" cy="337"></circle><circle r="12" cx="403" cy="172"></circle><circle r="6" cx="287" cy="598"></circle><circle r="10" cx="887" cy="47"></circle><circle r="10" cx="249" cy="378"></circle><circle r="5" cx="92" cy="3"></circle><circle r="4" cx="429" cy="81"></circle><circle r="11" cx="385" cy="545"></circle><circle r="9" cx="733" cy="221"></circle><circle r="7" cx="216" cy="499"></circle><circle r="0" cx="823" cy="290"></circle><circle r="7" cx="347" cy="235"></circle><circle r="2" cx="338" cy="439"></circle><circle r="3" cx="844" cy="18"></circle><circle r="2" cx="353" cy="294"></circle><circle r="8" cx="3" cy="395"></circle><circle r="8" cx="767" cy="521"></circle><circle r="6" cx="388" cy="3"></circle><circle r="0" cx="649" cy="237"></circle><circle r="10" cx="155" cy="41"></circle><circle r="5" cx="274" cy="102"></circle><circle r="4" cx="265" cy="6"></circle><circle r="0" cx="801" cy="347"></circle><circle r="8" cx="489" cy="387"></circle><circle r="9" cx="141" cy="378"></circle><circle r="10" cx="867" cy="363"></circle><circle r="12" cx="126" cy="111"></circle><circle r="11" cx="306" cy="345"></circle><circle r="9" cx="813" cy="6"></circle><circle r="3" cx="10" cy="8"></circle><circle r="2" cx="752" cy="2"></circle><circle r="4" cx="385" cy="435"></circle><circle r="0" cx="47" cy="233"></circle><circle r="3" cx="732" cy="147"></circle><circle r="0" cx="698" cy="345"></circle><circle r="6" cx="133" cy="418"></circle><circle r="2" cx="342" cy="203"></circle><circle r="11" cx="53" cy="354"></circle><circle r="3" cx="892" cy="488"></circle><circle r="4" cx="323" cy="250"></circle><circle r="12" cx="757" cy="345"></circle><circle r="8" cx="6" cy="299"></circle><circle r="1" cx="592" cy="154"></circle><circle r="8" cx="26" cy="106"></circle><circle r="10" cx="541" cy="306"></circle><circle r="5" cx="71" cy="514"></circle><circle r="11" cx="759" cy="267"></circle><circle r="4" cx="620" cy="355"></circle><circle r="6" cx="607" cy="594"></circle><circle r="3" cx="869" cy="5"></circle><circle r="3" cx="410" cy="597"></circle><circle r="6" cx="104" cy="427"></circle><circle r="0" cx="898" cy="178"></circle><circle r="4" cx="800" cy="95"></circle><circle r="12" cx="341" cy="477"></circle><circle r="7" cx="146" cy="276"></circle><circle r="11" cx="99" cy="305"></circle><circle r="2" cx="896" cy="92"></circle><circle r="1" cx="464" cy="334"></circle><circle r="4" cx="759" cy="197"></circle><circle r="1" cx="67" cy="436"></circle><circle r="1" cx="601" cy="266"></circle><circle r="7" cx="296" cy="297"></circle><circle r="9" cx="105" cy="165"></circle><circle r="2" cx="860" cy="121"></circle><circle r="8" cx="327" cy="384"></circle><circle r="10" cx="516" cy="597"></circle><circle r="4" cx="206" cy="80"></circle><circle r="1" cx="549" cy="360"></circle><circle r="7" cx="178" cy="568"></circle><circle r="0" cx="686" cy="181"></circle><circle r="12" cx="88" cy="382"></circle><circle r="9" cx="834" cy="313"></circle><circle r="7" cx="6" cy="359"></circle><circle r="9" cx="400" cy="83"></circle><circle r="2" cx="167" cy="520"></circle><circle r="0" cx="546" cy="82"></circle><circle r="7" cx="217" cy="139"></circle><circle r="7" cx="137" cy="476"></circle><circle r="9" cx="293" cy="473"></circle><circle r="6" cx="571" cy="392"></circle><circle r="3" cx="876" cy="305"></circle><circle r="6" cx="729" cy="438"></circle><circle r="3" cx="760" cy="141"></circle><circle r="9" cx="768" cy="424"></circle><circle r="6" cx="357" cy="548"></circle><circle r="4" cx="899" cy="354"></circle><circle r="5" cx="506" cy="455"></circle><circle r="12" cx="396" cy="254"></circle><circle r="1" cx="262" cy="256"></circle><circle r="3" cx="42" cy="276"></circle><circle r="9" cx="290" cy="47"></circle></g></svg>