<svg id="Layer_1" data-name="Layer 1" xmlns="http://www.w3.org/2000/svg" viewBox="0 0 512 512"><title>world</title><path d="M512,256c0,141.38-114.61,256-256,256S0,397.38,0,256,114.61,0,256,0,512,114.63,512,256Z" fill="#404041"/><path d="M28,139.52,139.52,28A257.1,257.1,0,0,0,28,139.52Z" fill="#4d4d4f"/><path d="M179.06,11.77,11.77,179.06a254.14,254.14,0,0,0-6.43,24.69L203.75,5.34A253.94,253.94,0,0,0,179.06,11.77Z" fill="#4d4d4f"/><path d="M231.24,1.2l-230,230Q.27,240.84.07,250.64L250.63.07Q240.84.27,231.24,1.2Z" fill="#4d4d4f"/><path d="M273.44.6.6,273.43q.56,8.39,1.66,16.63L290.05,2.26Q281.83,1.17,273.44.6Z" fill="#4d4d4f"/><path d="M309.94,5.71,5.71,309.95q1.59,7.41,3.6,14.66L324.6,9.31Q317.35,7.3,309.94,5.71Z" fill="#4d4d4f"/><path d="M342.32,14.93,14.94,342.33Q17.32,349,20,355.47L355.46,20Q349,17.31,342.32,14.93Z" fill="#4d4d4f"/><path d="M371.41,27.44l-344,344q3,6,6.39,11.86L383.28,33.83Q377.44,30.48,371.41,27.44Z" fill="#4d4d4f"/><path d="M397.69,42.77,42.77,397.69q3.63,5.46,7.53,10.72L408.42,50.31Q403.16,46.4,397.69,42.77Z" fill="#4d4d4f"/><path d="M421.43,60.64,60.65,421.43q4.18,4.93,8.6,9.65L431.08,69.25Q426.36,64.82,421.43,60.64Z" fill="#4d4d4f"/><path d="M442.75,80.91,80.92,442.75q4.72,4.42,9.65,8.6L451.37,90.58Q447.18,85.64,442.75,80.91Z" fill="#4d4d4f"/><path d="M461.69,103.58,103.58,461.69q5.26,3.91,10.73,7.54L469.23,114.31Q465.59,108.85,461.69,103.58Z" fill="#4d4d4f"/><path d="M478.17,128.72,128.71,478.16q5.84,3.35,11.88,6.4l344-344Q481.51,134.56,478.17,128.72Z" fill="#4d4d4f"/><path d="M492,156.53,156.53,492q6.48,2.73,13.14,5.11L497.06,169.67Q494.68,163,492,156.53Z" fill="#4d4d4f"/><path d="M502.69,187.41,187.4,502.69q7.24,2,14.66,3.6L506.29,202.06Q504.7,194.65,502.69,187.41Z" fill="#4d4d4f"/><path d="M509.74,222,221.94,509.74q8.23,1.09,16.62,1.66L511.4,238.56Q510.83,230.18,509.74,222Z" fill="#4d4d4f"/><path d="M510.81,280.75q.92-9.59,1.13-19.38L261.37,511.93q9.79-.2,19.39-1.13Z" fill="#4d4d4f"/><path d="M332.92,500.23,500.23,332.92a254,254,0,0,0,6.42-24.68L308.23,506.66A254.22,254.22,0,0,0,332.92,500.23Z" fill="#4d4d4f"/><path d="M484,372.49,372.48,484A257.12,257.12,0,0,0,484,372.49Z" fill="#4d4d4f"/><path d="M196.65,241.87a1.66,1.66,0,0,1-.16.24Z" fill="#fff" fill-rule="evenodd"/><path d="M235.14,366.75l.1,0Z" fill="#fff" fill-rule="evenodd"/><path d="M173.51,262.12l.15.37C173.58,262.31,173.51,262.12,173.51,262.12Z" fill="#fff" fill-rule="evenodd"/><path d="M256,131.2c-68.74,0-124.8,56.07-124.8,124.79S187.26,380.81,256,380.81s124.8-56,124.8-124.81S324.74,131.2,256,131.2Zm20.64,199.73a7.48,7.48,0,0,1-2.77,2.53c-.88.31-1.19,1.15-1.78,1.62a3.09,3.09,0,0,0-1,1.25,10.28,10.28,0,0,1-2.3,2,2.74,2.74,0,0,1-.47,1.46c.07.56.23.52.11,1.08a6.6,6.6,0,0,1-.21,1.53,3.74,3.74,0,0,0-.31,2.24l-.85,1.25c-.71.42-1.19,1.77-1.65,2.51-.42.34-.47.41-.63,1.12-.56.32-.62.25-1,1.2a3.18,3.18,0,0,0-1.82,1.09s-1.14.37-1.55.12a1.85,1.85,0,0,0-1.56,0,2.26,2.26,0,0,1-1.82.13s-.93.47-1.15.56-1.25.47-1.57.6a3.48,3.48,0,0,0-1.45.56,3.65,3.65,0,0,1-1.83.69,2.11,2.11,0,0,1-.77.66,1.61,1.61,0,0,0-.81.67,2.56,2.56,0,0,0,.14,1.52c.09.29.36.15,0,1l-1.24.94a2.3,2.3,0,0,0-1.56.88c-.31.54-.88.58-1.4.88-.43,0-.63.17-1,.64a1.44,1.44,0,0,0-.83.52,2.72,2.72,0,0,1-1.2.78,15.6,15.6,0,0,0-2.56,1.18,2.91,2.91,0,0,1-2.38-.29,12.52,12.52,0,0,0-1.51-.38,2.91,2.91,0,0,1-1.24-.46c-.22-.23-.43-.27-1-.1-.31-.37-.61-.47-.48-.09s1.15.65,1.31,1a3.74,3.74,0,0,0,1.46,1.4c.62.25.86.32.79.69s-1.65.84-1.65.84c-.47.19-1.53-.49-2-.22s-2-.15-2.28-.22a1.5,1.5,0,0,0-1.09-.1,1.12,1.12,0,0,1-1.25-.13,1.67,1.67,0,0,1,0,.67c0,.3.22.62.54,1,0,0-.22.39-.45.34a2.34,2.34,0,0,0-1,.25c-.21.12-.52.37-.72.26s-.55.22-.21.79c0,0,.6.93,1.08,1.59s-.61.58-1.33,1l-.84-.27a4.47,4.47,0,0,0-1.56-.49,3.43,3.43,0,0,1-1.88-.76,2.34,2.34,0,0,0-1.62-.27,2.9,2.9,0,0,1-2-1.2c-.63-.76-.32-.52-1.26-1a4.21,4.21,0,0,1-2.07-2.72c-1.25-.1-2.28-.47-2.34-.75s-1-1-1.15-1.57a2.19,2.19,0,0,0-1.18-1.7c.18-.24.49-1.47.91-2.58,0,0-.93-2.38-1.5-3.63s-1-2.88-.68-3.51,0-1.87-.19-2.9-.69-1.67-.17-2.51-.22-1.55-.37-2.71-.77-1.49-1-2.18c-.36-.94-.93-1.13-1.14-1.67a3.87,3.87,0,0,0-2-1.53,4.19,4.19,0,0,1-1.94-1.45,3.76,3.76,0,0,0-1.66-1.31c-.83-.19-.92-.34-1.88-1.4s-1.79-1.08-2.33-1.67c-.73-.78-1.41-1.55-1.41-1.87a4.67,4.67,0,0,0-1.25-2.33,3.09,3.09,0,0,1-1-2c0-.84-.57-1.31-1.19-2.24s-.83-1-.93-1.82-.13-1-1.48-2.77a40.82,40.82,0,0,0-3.3-3.78c-.68-.78-.28-1.62-.64-2.24s-.1-1.15.73-1.15.78-.62.87-1.14,0-.88-.87-1.82a12.17,12.17,0,0,0-.09-2.24c-.16-.83.71-.73.71-1.59a1.11,1.11,0,0,1,1.19-1.25,1.77,1.77,0,0,0,1.87-1.4c.32-1.11,1.11-1.26,1.73-.84s.72,0,1.88-1.4a1.59,1.59,0,0,1-1.3-.69c-.69-.77.09-3.27.19-4.21s0-.71-.7-2.53c-.46-1-.67-1.57-.36-1.83s.38,0,0-.62a8.24,8.24,0,0,0-1.67-1.55,12.69,12.69,0,0,0-1.87.77c-.3.19-.3.14-.3.14a2.17,2.17,0,0,1,.49,1.43c0,.09-.62.29-.74.32a7.28,7.28,0,0,0-1-1.24,6.67,6.67,0,0,1-.47-.88c-.1-.32-.46-.46-1-.71a4.37,4.37,0,0,1-1.71-1.2c-.32-.52-1.53-2.13-1.53-2.77s-1-1.53-1-1.53c-.07.71-.08,1.08-.33.77s-1-.64-.83-1.2a9.88,9.88,0,0,0,.08-2c-.64-1.33-2.34-5.92-2.34-5.92-.91.07-1.1.26-1.41-.25a9.57,9.57,0,0,0-2.16-2.24c-.73-.46-1-1.45-1.57-2a7.8,7.8,0,0,1-1.28-2.06c-.26-.63-.91-2.24-.91-2.24-.71-.73-1.84-1.83-1.84-1.83-1.58.41-1.58.22-1.9-.19s-1.51-1.53-1.66-1.82a7.87,7.87,0,0,1-.69-1.31,8.43,8.43,0,0,0-1.14-1.84,15.86,15.86,0,0,0-1.41-2.49,8,8,0,0,1-1.15-2.09,6.93,6.93,0,0,1-.78-1.62c-.17-.62-.1-1.31-.41-1.55s-.28-1.09-.28-1.09.28.25,0-.17a1.71,1.71,0,0,1-.21-1.49c.16-.6,1.42-5.09,1.42-5.09-.38-2.43-.48-3.31-.32-3.57s0-.46-.12-.88c-.09-.84-.37-1.06-.15-1.57a5.64,5.64,0,0,1-.16-1.67c-.06-.39-.09-1.05-.09-1.05a3.1,3.1,0,0,0,.76-1.35,1.56,1.56,0,0,1,0-1.49v-1.75a9.91,9.91,0,0,0,0-3c-.32-.73.46-3.57,1-4.38s.79-3.23.09-4.27c0,0-1.67,4.24-1.85,4.52s-.21,2.13-.43,2.65a5.59,5.59,0,0,0-.16,2.29l-.52,1.77a5.45,5.45,0,0,1-.48,2.56c-.52.73-.55,3.31-.39,4.32a17.62,17.62,0,0,1,.14,1.81c0,.06-.61,1.18-.91.75a5.7,5.7,0,0,1-.13-3.18,5.54,5.54,0,0,0-.31-1.47c-.26-.52.93-3.86,1.34-5.53l-.58-2.9,1.34-.66s.08-2.51.25-3.66,1.13-2.75,1.23-3.71,1-3.31,1.67-6.12c0,0-.17-1.79-.32-2.5s1-1.94,1.1-2.78,1.57-2.75,2.56-4.16l-.32-.73a9.8,9.8,0,0,0,.73-1.35c.47-1,.78-1.32,1.35-2.43a20.93,20.93,0,0,1,1.88-2.3c.61,0,4.68-4.58,5.62-5s2.75-3.12,3.5-4.79.57-.3.72,1.35a26.33,26.33,0,0,1,2.6-3.18c.83-.73,1.28-3.46,1.33-4.3s6.48-6.48,7.52-7.22.47-.78-.44-.86c0,0,.75-.63,1.59-1.29a30.39,30.39,0,0,1,4.47-3.35c1.35-.69.52-.93-.41-.84s-2.27,1.46-1.76.81,2-2.8,2.79-3,1-1.57,1.15-2.41,2.9-2.49,3.59-3.42c0,0-.94.24-1.51.34s-1-.1-1.09-.94-.91-.58-2.75-1.77c0,0,.07-.13.67-.49a3.81,3.81,0,0,1,2.76-.17c.73.32,2.25-1.35,2.66-2.41s3.13-2.33,4.57-2.24.69,0,2-1a3.34,3.34,0,0,0,.91,1.4c.57.45,2-.22,2.51-1a4.31,4.31,0,0,1,1.41-1.46c.57-.37,2.81-1.25,2.75-1-.12.54.16.88-.25,1.27s-1.83,1.74-1.83,1.74l2.21-.47c.54-1.15,1.16-.78,1.8-1.08s1.72-.3,1.81-.71c1.59.52,1.62.84,1.82,1.38s.19,1.35-.72,1.35a2.34,2.34,0,0,0-1.93,1,34.68,34.68,0,0,1-2.19,3.1c-.79,1-1.47,1.38-1.57,2.11s-1.65,2.14-1.65,2.14l.34-.13c.91-.3.88-.47,1.67,0a14.39,14.39,0,0,0,2.13,1c-.15,2.06-1.2,4.36-1.1,5.41a1.71,1.71,0,0,1-.3,1.42c-1.42.07-1.77.34-1.25,1l.49.61c1.27.17,4.16.52,4.16.52-.91.84-.7,1.35-.91,1.5s.25,1.33.25,1.33c1.31,0,3.12.84,2.66,2.82,1.3-.73,3-1,3.21-1.53a2.34,2.34,0,0,1,1-.88,3.05,3.05,0,0,1-.5-1.5c1.18-.41,1.59-.58,1.8-1,1-1.09,1.46-.3,1.87-.92s1.41-1.18,1.72-1.7.62-1.2,1.45-.8,1.38,1.55.76,1.45a3.59,3.59,0,0,0-2.2.84c-.31.3-2,.41-2,.84s-.31,2.56-.94,2.56-1,.88-1,.88l-.93,1.87c1.78-.84,1.35-.69,2.18-.37a2.51,2.51,0,0,0,2.48-.4c.4-.52.86.45.86.45s.1.52.22,1.25a2.54,2.54,0,0,1-1.16,2.24,4.37,4.37,0,0,0-1.66,1.2,1.12,1.12,0,0,1-1.78-.13c-.3-.61-2-1.4-2.5-.83a5.35,5.35,0,0,1-1.88,1.08,2.71,2.71,0,0,1-.92,2.06c-1.26-.56-1.58-.52-2.07-.1a4.51,4.51,0,0,1-1.74.45,5,5,0,0,0-2,1.25c-1.25.17-2.26.25-2.26.25-.93,1.06-1.34,2.35-2,2.26s-1.4,2.18-1.4,2.18c.7.06.43.32.1.89a25.48,25.48,0,0,1-1.57,2.16c1.57-.3,1.79,0,2.25.91a13.89,13.89,0,0,1,1.5,3.18c.1.84.38,1.67,1.1,1.79a6.39,6.39,0,0,1,2.08,1.31c-1.91,1.18-1.33,2.67-1.5,3.16s-.79,1.87-.47,2.29.08,2.06,1,2.28.81.34.81.34c.44-.34,1.09-1.42,1.91-1.42-.57-.74-.54-.88-.32-1.82s-.16-2.19.56-2.51,1.67-.73,1.67-.73a11.48,11.48,0,0,0,2.9-1.25l.6-.28c.29-2,.38-1.62.45-2.77s.38-.88-.1-1.62-.89-.84-.89-.84a11,11,0,0,0,2.19-.47c.69-.22.73-1.2.73-1.2a3.46,3.46,0,0,1,.69-2.19c.42-.52,1.77-2,1.77-2,.52.41,1.5,1.52,2.24,1.2s1.1-.1,1.1.41-.12,1.85.5,2.21a7,7,0,0,0,1.66.6c-.4,1.47-.31,3.06-.83,3.06a4.55,4.55,0,0,0-1.62.84c2.2,1.06,2,.57,3,.52a7.36,7.36,0,0,0,2.4-.71,18.62,18.62,0,0,0,1.43-1.44,1.7,1.7,0,0,1,.56,2.06c-.29.54-.65,1.32-.65,1.32l1,.45c-.47.84-.53,1.44-.06,2s-.45,2-.45,2a12.1,12.1,0,0,1,3.26,2.53A9.13,9.13,0,0,0,242,205.2a3.86,3.86,0,0,0-3,.49,11,11,0,0,1-2.18.52c.09.67.88.77,1.62.67s1.31-.86,2.24-.93,1,.19,1.72.73a2,2,0,0,1,.56,2.09c-.16.71-.52,2.71-1.46,2.28s-1.93-.56-2.33.18a5.24,5.24,0,0,1-2.26,1.59,25.3,25.3,0,0,1-3.54-.32s-1.56-1.16-2.69-.73a2.71,2.71,0,0,1-2.09-.06c-.62-.37-.62-.41-1,.52a2.94,2.94,0,0,1-2.5,1.35c-.41-.09-1.67,1.05-1.67,1.05,2.51-.22,2.2.32,3.44-.31s2.82-.81,3-.28,0,1.89-.72,1.57A3.55,3.55,0,0,0,227,216c1.58.39,2.2.79,1.68,1.42a2.5,2.5,0,0,0-.21,1.87s.37,1.6.93,1.46,2.51,1.15,2.83,1.05.71.73,1,.76.78.08-1.24.23-3.54.12-4.16,1.06-1.62,2.24-1.78,1.4-.52-1.87.21-2.09,3-1.09,3-1.09a5.35,5.35,0,0,0-4.12-.63c-.44.17-1,.37-.87,1a8.33,8.33,0,0,1-1.48.38,3.57,3.57,0,0,0-1.62.31c-.25.27-1.08.23-1.73.32a1.32,1.32,0,0,0-.91,1,2.72,2.72,0,0,1-1,1.46s.21.32.47.69c.39.54.61.91,1,.32-.09.56-.43.63-1,.52s-1.45-.42-1.86-.1-.64.15-1.16-.07a1.45,1.45,0,0,0-1,0,6.18,6.18,0,0,0-2.09.8,3.52,3.52,0,0,0,0,1c.13.32-.28.6-.8.81s-.52.52-1.27,1.2a2.61,2.61,0,0,0-.5-1.53,4.18,4.18,0,0,0,.17,1.25c.15.37-.17,1.09-.26,1.46s-.58.22-.88,1-.47.52-1,.1.1-.54.1-1a4.83,4.83,0,0,1,.27-1.15,10.16,10.16,0,0,1,.77-1.24c.37-.46.25-.44-.15-.31s-.74.24-.79.69a1.85,1.85,0,0,1-.21.93,1.3,1.3,0,0,0-.15.56c0-.29-.37-.46-1-1,0,0,.63,1.46.73,1.74s-.29.77-.73,1.75c0,0,.19-.08.65.44s-.1,1-.42,2.66c0,0-1.55,1.27-2,1.55a33.05,33.05,0,0,1-4,1.49c-1.48.43-3.13.32-3.85,1.46a10.31,10.31,0,0,1-1.69,2.28s-.14.86-.24,1.57-.11,4.28-.07,6.34-.52,1.25-.67,2.3-.38,1.43-.94,1.67c-1.25.52-1.88-.64-1.4-2.33a20.14,20.14,0,0,0-.41-4.36c-.17-.2.67-1.69.67-2.41s-.55-2.52-1-2.65a4.7,4.7,0,0,1-3-2.26c-.87-1.7-.7-.32-2.33-.49s-.75.54-1.91-.6-.84.84-.84.84a5.29,5.29,0,0,1-2.67-1.91c-.62-1.25-1.1-.39-1.1-.39a23.3,23.3,0,0,0-2.56-.94c.84.42-1.87,1.09-3.12.84s-1.26.67-1.53,1.65-.47,1.57-.86,2.84c0,0-1.29,1.43-1.67,1.75s-.43.29-.12,1.25c0,0-.88.93-.79,1.67a5.07,5.07,0,0,1-.56,2.69,14.35,14.35,0,0,0,0,2.49c.17,1.05.47,1.25-.15,2.63.1.62.41,1,.66,1.91a13.29,13.29,0,0,0,1.16,2.34A6.28,6.28,0,0,0,172,261c1-.09,1,0,1.48,1.09,0,0,1.42.17,1.79-1.65a5.23,5.23,0,0,0,.84-1.72c.1-.73.45-.84,1.31-.79s.72.32,2,.32,1.1.57,1.62,1.18.52.66.1,1.25-.66.43-1.24,1.58c-.45.17-.63,1.34-.72,1.86s0,1.16-.49,1.38c0,0-.34-.54-.67-1a5.65,5.65,0,0,1-.36,1.3c-.26.6-.16.79-.15,1.72,0,0,0-.07-.16.22s0,.67-1.08,1.35c0,0,.44.42.66.66a3.61,3.61,0,0,0,2.13.79c1.19.15.93.09,1.19.46s.77.32,1.41.52,1.35.84,1.35,1.35.66.88,1.09,1.2.46.37.19,1.05c-.46.34.16.57-.3,1.28a10,10,0,0,1-.52,2.19,6.17,6.17,0,0,0-.47,2.09c-.12.78.19.78-.45,1.74a3.06,3.06,0,0,0,.64,1.33c-.09.41,0,.52.53,1.05s.88,1.49,1.47,2.13.5,1.11.79,1,1.64,0,3-.19,1.15.07,1.57.78a5.72,5.72,0,0,0,2.09,2.11c.81.1,2.33.13,2.49-.22s1.15-1,1.15-1c0-1.53-.47-1.41.57-1.55s2.64.41,3.79-.47,2.44-.52,3.18-1.25.73-.38.73-.38c.43.3.06.15-.25.75a17.63,17.63,0,0,0-1.29,3.07c0,.19,0,.86.5,1.08,1.1.22,1.32,0,1.72-.22s.47-.34.89-.4c.15-.63.36-.78.1-1.4a2.45,2.45,0,0,1,1.19.3c.48.58,1.2,1.57,1.73,1.62s.67.54,1.08.92a4.12,4.12,0,0,1,2.2.26c.56.34.87,0,1.39.22a11.4,11.4,0,0,1,1.91,1.35,11.44,11.44,0,0,1,2.46.15c.78.13,1,.32,1.47.13.77.3.83.1,1,.47a1.5,1.5,0,0,0,.88.78,15.21,15.21,0,0,1,2.24,1.31,1.81,1.81,0,0,0-.17,1.67c.21.24.8.24,1.23.34a4.46,4.46,0,0,1,1.4.63,16.72,16.72,0,0,0,1.35,1.35c.47.3,1.56.84,1.56,2s1.66,2,1.66,2a6.7,6.7,0,0,1,2.09,0c.79.17,1.85,0,2.41.1s1.24-.15,2,.69c2.32.46,2.92,1.38,3.23,1.89,1.36.76,1.36.86,1.88,1.12s1.82.71,2.08,1.6a5,5,0,0,0,.89,2c.42.52,1.56.86.84,1.48a21.21,21.21,0,0,0-2,2.38c-1.82,1-.57,1.12-.52,1.55s-.1.73.37,1.2c.52-.89.46.12.8-1.63s1.07-.71,1.59-.52,2.41,1,2.82.77c0,0-1.26,2-2.3,2.11a6.62,6.62,0,0,1-1.95,0,1.7,1.7,0,0,0,1.54,1.1,1.62,1.62,0,0,0,1.63-.61c.63-.62.86-1.82,2-1.93a5.74,5.74,0,0,1,3.14.47,39.16,39.16,0,0,1,4.78,1.74,3.63,3.63,0,0,0,2.61,1,8.1,8.1,0,0,1,3.65.47,2.46,2.46,0,0,0,2.18.26c.73-.22,1.25.08,2.09.56s3,1.82,3.65,2.19,1.14.69,1.88.47,2.08.22,2.11.13,1.22,1,1,3.1A12.67,12.67,0,0,1,276.64,330.93ZM228.7,159.56a.88.88,0,0,1,1.16.37c.15.27,1.11.64,1.11.64s1-.13.72.29-.58,1.09-.72,1.22a1.46,1.46,0,0,1-.74.34,2.94,2.94,0,0,0-.91.39l.22.19h0l-.22-.19c-.69-.52-1.14-.81-1.55-.71s-.52-.15-.78-.34-1.09-.23-.25-.74.68-.78.93-.88A4.32,4.32,0,0,0,228.7,159.56Zm-.65-1.35c-.06-.32.34-.37.34-.39a8.5,8.5,0,0,0,1.93.07,1.7,1.7,0,0,0,.86.47c.31.09.31.32-.12.37a7.38,7.38,0,0,1-1.52,0,2.07,2.07,0,0,0-1.28,0C227.67,158.87,228.09,158.5,228,158.21Zm4.37,4.37c.57-.26.39-.19,1.25.1s0,.73-.35,1.06a3,3,0,0,0-1.41.84,6.84,6.84,0,0,0-1-.41c-.37-.1.13-.55.25-1.09C231.14,163.07,231.85,162.83,232.42,162.57Zm.72-3.6c.63-.25.15-.13.76.44a10.69,10.69,0,0,0-1.33,0C231.85,159.45,232.52,159.24,233.14,159Zm3.86,1.84a2,2,0,0,0-1,.62c-.26.32-.37,0,.1-.62.21-.3-1.29-.78-.57-1a6.31,6.31,0,0,0,1.48-.66c.45.42.14.27.14.75S237.41,160.69,237,160.81Zm5.15,1.33a.6.6,0,0,1-.53.13,8.91,8.91,0,0,0-2.53.41c-1.32.56-.16-.58,0-1s.34-1,.57-1.1a3.61,3.61,0,0,0,1.34-.84c.37-.47.77-.25,2.05-.47a7.94,7.94,0,0,1-.6,1.82A1,1,0,0,0,242.15,162.14Zm0,.07c.07.25,0,.13,0,0Zm-3.6,2.34c.3.15,2.28-.88,4.15-1.57,0,0,.25-.88,0-1.18s-.21-.52,0-.73a5.21,5.21,0,0,0,1.18-2.24s.7-.32,1-.06,1.8.06,2.88-.22c0,0,1.38.22,1.69.69s.47.52,2.33,1c0,0-3.53,2.09-3.93,2.19a16.61,16.61,0,0,0-3.23,1.81c-.28.32-1.6.47-2.24,1s-1.5-.69-1.5-.69-.73.64-.54,1.06-.79.47-.91.86a5.58,5.58,0,0,1-1.79-1C237,164.91,238.24,164.4,238.57,164.55Zm17.57-4.81s2.48-.45,3.43-.76,1.08.22,1.7.54a5.65,5.65,0,0,0,1.3.39c-1.81.64-2.81,1-2.08,1.16a5.55,5.55,0,0,1,1.32.52c.8-.62,4.07-2,4.17-1.26a5,5,0,0,0,.17,2c.32.61.39,1.38.39,3.68a5.7,5.7,0,0,0,1.59,1.43c.73.29,1.57.71,1.57,1.55a7.33,7.33,0,0,0,.93,2.67,7.59,7.59,0,0,1-1.45.77c-.84.32-.46.46-.06,1a6.34,6.34,0,0,0,2,1.09c.61.32.33.58.91,1.32s-.52,0-1.06.13a2.69,2.69,0,0,1-2-.54c-.32-.41-.58-.47-1.39-.39.18.24.34,1.32.64,2.16s1.62.27,2.56-.17,1.18,0,.79.54-2.51,3.22-2.51,3.22-1.3,1.16-1.81,1.57a13,13,0,0,0-2.09,1.87,7,7,0,0,1-2,1.91,3.24,3.24,0,0,0-1.66,1.85,6.86,6.86,0,0,1-2.5,2.6c-.62.3-.34,1.23.22,2,0,1.2,0,1.85-.56,2.16s-1.91,1.09-1.91,1.09c-1.14-.69-2.89-1.67-3.32-2s-1.33-.73-1.6-1.44a4.93,4.93,0,0,0-1.09-2.51,3.11,3.11,0,0,1-.94-2.65,6.45,6.45,0,0,0-.55-2.49,6.37,6.37,0,0,1,.23-1.47c.16-.84.32-1.82.79-2s2.24-1.31,2.24-1.31c0-1.44-.58-2.77-.58-3.51-1.77.09-2.21,0-2.06-.86a5.7,5.7,0,0,1,.63-1.65c-.63-1.57-.3-2-.73-3.12s-.68-1.55-1.46-2a7.38,7.38,0,0,0-3-.3c-.67-.84-1-1.06-.89-1.89s-.15-1.82,1.47-1.89a5.74,5.74,0,0,0,2.35-.4c.71-.58,1.5-1.15,1.5-1.15-1.18-.52-1.1-.47-.47-.79s4.3-1.72,4.3-1.72c.33.52,2.11,1.16,2.11,1.16s.5.49.55-.22A8.65,8.65,0,0,0,256.14,159.73Zm12.93-15.11c-.15-.49.41-.28,1-.17s1.16.24.56.47S269.23,145.09,269.07,144.62Zm.83,1.31c-.87.09-2,.09-1.62-.23l.61-.46C269.61,145.33,270.79,145.8,269.9,145.93Zm-.46-1.72a1.43,1.43,0,0,1-1.39-.64c-.19-.47.61,0,1.43.32S270,144.15,269.44,144.21Zm-26.19,70.64,1.64.86a4.62,4.62,0,0,0,.39,1.38c.3.63.77,1.25.36,1.79a3.44,3.44,0,0,0-1.33,2.26s-4.49-1.59-4.91-2.06a3.25,3.25,0,0,0-2.83-.69c0-1.08.38-2,1.05-2.11a2.89,2.89,0,0,0,1.1-.56,2.84,2.84,0,0,0,.56-1.28,2.45,2.45,0,0,1,.87-1.79,25.74,25.74,0,0,1,2.65-1.4,4.09,4.09,0,0,0-1.33,2.16,4.85,4.85,0,0,1-.83,1.4C242.28,214.1,242.62,214.42,243.25,214.84Zm-5.79-30c-.16.15-.25.6,0,.69s1.3.81,1.3.81c-.12.69-.87,1.62-.78,2.09s-.44,1.18-.44,1.18c-.55.73-1.86,1-2,.73-.83-1-1.14-1.2-1.46-1.25s-1-.84-1.4-1.14-.48-.63-.63-.93-.48-1.31-.89-1.53a16.27,16.27,0,0,0-2-.88c-.31,0-.62-.71-.62-.71l-.47-.69a1.56,1.56,0,0,0,1-.62c.16-.26,0-.39.5-.24s1.63.91,2,.69a1,1,0,0,1,.85.07c0-.56-.43-1.1.09-1.25s1.51-.62,1.51-.62l1-.71a14.87,14.87,0,0,1-.5-2.9l-.21-2.43c-.35-.58-.48-.73-1-.73a4,4,0,0,1-2-.52c-.21-.32-.64-.27-1.25-.32s-.84-.19-.84-.71-.83-.47-.45-.88a4,4,0,0,0,.58-1.35,2.19,2.19,0,0,1,.7-.49,1.79,1.79,0,0,0,.88-.64,5.86,5.86,0,0,1,1-.69,3.91,3.91,0,0,0,2.09,0,.81.81,0,0,1,.73,0l1.59.67a4.56,4.56,0,0,0-.58,1.91,2.72,2.72,0,0,1,1.38,1c.1.32.31.32.71.54a4.77,4.77,0,0,1,1.85,1.63,17.32,17.32,0,0,0,1,2.11A1.57,1.57,0,0,1,241,178a28,28,0,0,0,.16,3.39,1.37,1.37,0,0,0,.56,1c.52.31,1.3.93,1.3.93-.25.84-.46,1.05-.88,1.05s-1,.71-1.44,1.08-.63.47-.79,0a11.8,11.8,0,0,0-.72-1.57l-.56-1.08a2,2,0,0,1-1.1,0A5.6,5.6,0,0,1,237.46,184.86ZM232,179.38c.37,0,.41-.15.57-.52s1-.63,1-.63l.28.58-.63.84a3.09,3.09,0,0,0-1.51,0C231.41,179.75,231.69,179.44,232,179.38Zm.17-13.91c0-.31.4-1.12.66-.93s.76.09.76.09Zm4.35,4.33c.17-.06.91.34.91.34s.21.44.3.69.37.26.37.71a.72.72,0,0,1-.77-.13c-.21-.28-.26-.07-.89-.22S236.42,170.27,236.57,169.81Zm.8-7.65-1-.17a3.47,3.47,0,0,1,1.57-1.25A3.59,3.59,0,0,0,237.37,162.16Zm-1.56,1,.67,1.83c-.78.34-1.09.62-.83,1s.53.69.87.64A2.91,2.91,0,0,1,238,167a2.23,2.23,0,0,0,1.4.25l-.62.58c-.21.39-.78.94-1.31.62a18.18,18.18,0,0,0-2.91-1.5c-.42,0-1.62,0-1.19-.79s.72-1,.72-1.4.37-.84.37-1.25.52-.64.52-.64Zm-8.35,3.07c.48-.06.72-.47.84-1.2,0,0,.53-.06.72.31s.16.57,1,.75a7.1,7.1,0,0,1-1.85,1.44,2,2,0,0,0-1.08,1.2,6.74,6.74,0,0,1-1.88.42c-.79,0,.93-1.35,1.09-1.82A1.71,1.71,0,0,1,227.46,166.22Zm-2.49-.89a5.93,5.93,0,0,1-1.31,1c-.37.1-1,.73-.86,1a1.75,1.75,0,0,1-.55,1.46,1.23,1.23,0,0,0-.45,1.2,3.18,3.18,0,0,1-1.41-.23c-.42-.24-.64-.37-1.05-.17s-.37-.54,0-.86a.34.34,0,0,0-.47-.41,1.87,1.87,0,0,1-1.35-.27c-.37-.24-.22-.37-1.57-.32,0,0,.28-1,.43-1.4s.26-.76.58-.88a3,3,0,0,0,1.18-1.4c0-.43.53-.67,1.57-1.23,0,0,1.59-.39,2.09,0s1.31.17,2.13.07a.76.76,0,0,1,.86.77,3.11,3.11,0,0,1,1.24.73Zm-2.17,7.48c-.71,0-1.12-.19-1.18-.39a.84.84,0,0,0-.52-.66c-.3-.1-.09-.32.47-.42a3.15,3.15,0,0,0,1.15-.41c.21-.15,1-.69.62.15-.13.32-.3,1-.3,1S223.54,172.8,222.81,172.8Zm1.9-12.06c-.41.39-.41.49-.48,1.15a3.11,3.11,0,0,0-.78,0,1.66,1.66,0,0,1-1.08-.09c-.27-.23-.58-.23-1.26-.1,0,0-.84.1-1-.13a1.13,1.13,0,0,0-1.25-.09l-.52,0s.66-.81,1.08-1.28.84-.56,1-.46a2.54,2.54,0,0,0,1.39-.3,4.22,4.22,0,0,1,1.41-.34,1.48,1.48,0,0,0,1.19-.34c.42-.47.58,0,1,.56A3.7,3.7,0,0,1,224.71,160.74Zm-3.28,21.72c-.47.1-.62.22-.78-.07,0,0,1.34-1.23,1.56-1.18s1-.47,1-1,.09-.52,1-.56c0,0,.28.76.38,1.08s.14,1.16.52,1.48c.42.61,1.15,1.77.83,2.48s-2-.61-2.18-1.35c-.43-.56-1.35.19-1.91.69a1,1,0,0,1-.31-.58c-.12-.42.31-.56.61-.94A1.15,1.15,0,0,0,221.43,182.45Zm13,36.93c0,.73.79,1.87.66,2.06s-1.28.22-2,.58C232.62,221.06,233.07,220.81,234.48,219.38Zm-2.26.84a1.58,1.58,0,0,1-1.89-.1c-.47-.41-.66-.56-.52-1.49l.32-.81a13.49,13.49,0,0,1,1.14,1.77c.22.54,1,.64,1.66-.32C232.93,219.26,233.07,219.8,232.22,220.22Zm-16.14,56.43s-.89.6-1.25.54-.27-.37-1-.22-.46-.54-.56-.73-.08-.25.26-.27a1.56,1.56,0,0,1,1.09.27Zm-20.76-8.38a3.39,3.39,0,0,1,1.7-.91c-.44-.09-2-.81-2.24-1.64s.14-1-.54-1.35-2.68-1.11-2.8-1.82-.73-.58-1.46-1a7.66,7.66,0,0,1-2.09-1c-.73-.64-1.3-.69-1.72-.47a2.51,2.51,0,0,1-1.34,0,4.88,4.88,0,0,1,2.09-1.18c.29,0,.93.56,1.75.24a2.82,2.82,0,0,1,2.44.69c.79.45,3.76,3.42,4.39,3.74a21.82,21.82,0,0,1,2.75,2.75,5.91,5.91,0,0,1,1.3,1.3c1.51.84,1.68,1.7,1.68,1.7-1.35-.22-2.88-.91-3.91-.71S194.41,269.11,195.31,268.27Zm1.38,4.53c-.29-.06-1.2-.1-1.44-.15s-.58-.79-.69-1-.21-.17-.67-.52c-.69-.54.47-.17.62-.07s1.22.24,1.23.29a6.41,6.41,0,0,1,.91,1.07C197,273,197,272.87,196.69,272.8Zm5,0c.24.32.16.22.31.32a9.89,9.89,0,0,0,1.25.26c.31,0,.64,0,.37-.49s-.31-1-.56-1.23a2.91,2.91,0,0,1-.52-1.05c.62-.27.62-.32,1.13,0a2,2,0,0,0,1.25.47,2.37,2.37,0,0,1,1.44.26A2.64,2.64,0,0,0,208,272a1,1,0,0,1,1.2.73c.25.56.31.94.67,1.08s1.23.6,1.25,1.07,0,.61-.4.52-1.88-.42-2.25.14a2.3,2.3,0,0,0-2,.17c-.68.25-.75.49-1.11,0a1.86,1.86,0,0,1-.43-.84c-1.23-.54-1.48-.4-1.79-.3-.32-.3-.58-.66-1-.47s-.63,0-.83-.24a6.44,6.44,0,0,1-.52-.88C200.92,272.7,201.48,272.61,201.64,272.8ZM283,184.08c-.11.73-.37,1.12-1.09,1.12s-1.1.79-2,1.25a5.28,5.28,0,0,1-2.51.6c-1.13.09-.58-1.4-.58-1.4-1,.19-1.65-1.06-2.85-1a5.73,5.73,0,0,1,.27-1.31c.31-1.27,1-.76,1.81-.12s1-.6,3.67-1.16c0-1.16,1.18-.69,2.69.15S283.13,183.34,283,184.08Zm-2.85-23.77c.94.6-.29.92-1.12.74s0-.17-.33-1c-.56.46-1.93.22-2.67.12s-1.32-.93-1.08-1.27,3-.41,3-.41A14.19,14.19,0,0,0,280.17,160.32Zm.3-1.77a.61.61,0,0,1,.57.86s-.43-.22-1-.49C279.13,158.55,279.46,158.45,280.47,158.55Zm-5.42-.49c-.91.32-.65-.69.12-1.1s1.19-.88,1.4,0l1.08.78A6.46,6.46,0,0,0,275,158.06Zm17.88-3.34a10.24,10.24,0,0,0-2.2-1.16c-.71.3-1,0-2-.69s-5.37-2.53-6-3.31.27-.37.88,0a37.85,37.85,0,0,0,5.69,2.41c1,.19,3,1.4,4,1.08s1.47-.17,2.4.69-.19.86-1.34.45C293.64,154.81,293.64,155.28,292.92,154.72Zm9.41,48.05a3.12,3.12,0,0,0-1.55,1.14c-.22.49-1.41,1.05-1.41,1.05-.88-.56-1-.69-.68-1.2a7.94,7.94,0,0,0,.34-2c-1.14.32-.81.22-1.27-.19s-.79-.88-.23-1.16a1.82,1.82,0,0,0,.84-.66c-.15-.69-1-2.2-.41-1.89l.66.32c-.21-.73.22-.88.69-1s1.73,1,1.73,1a1.07,1.07,0,0,0,0,1.31,9.46,9.46,0,0,0,.81,1.67C302.14,201.42,302.86,202.55,302.33,202.77Zm4.79,2.06c-.41.17-.88.55-1.25.49a1.78,1.78,0,0,0,.32-1.42c0-.62.46-1.08-.1-1.31s-.56-.88-.84-.56a5.84,5.84,0,0,1-.78.73.75.75,0,0,1-.21-1.15,3.18,3.18,0,0,0,.62-1.67,2,2,0,0,0-.56-1.08,10.09,10.09,0,0,0-1.26-1.2c-.28-.25-.18-.81-.26-1.07a2.82,2.82,0,0,0-2.19.08c-.52.19-.77.15-1-.42s-1.46-1.81-1.72-2.41-.83-2.06-.83-2.06l1.39-1.2.27,1.5c.31.28.93-.56,1.85-.64.39.08,1.07,2.06.84,3.27l1,.06a4,4,0,0,1,1.67.44,9.16,9.16,0,0,1,1.53,1,3.64,3.64,0,0,0,1.38.78,1.88,1.88,0,0,1,1.08,1.67c.06.27,1,.19,2,0a14.92,14.92,0,0,0,1.11,2.83,4.05,4.05,0,0,1-1.38.8,2.55,2.55,0,0,0-1.36,1.53A2,2,0,0,1,307.12,204.84Zm45.1,117.45c-.57-2.21,0-2.24.21-3.59a8.83,8.83,0,0,1,1.62-3.89,5.61,5.61,0,0,0,1.64-3.07,5.59,5.59,0,0,1,1-3.12c.52-.41.78-1.94.78-1.94-.62-1.65-.54-2-.1-2.75s0-1.78-.11-2.28a29.93,29.93,0,0,1,.24-3.54c-.64-.3-.84-.86-1.64-1.82s-2.29-3.27-2.29-3.27a7.77,7.77,0,0,0,.92-3.83c.08-.15.17-2.34.17-2.34l-.26-3.31c-1.58-.34-2.34,0-2.65.77a5.68,5.68,0,0,1-1.68,1.64,13.52,13.52,0,0,0-2.92-2.41,26.85,26.85,0,0,0-4.15,2.83c-1,.93-4,4.69-4.59,5-1.56-.62-1.9,0-2.69.65-1.51,1.2-2.13,1.63-2.67,1.5s-1.45.73-1.87,1.38a1.6,1.6,0,0,1-1.67.73c-.73-.12-3.21.15-3.93-.8a8.09,8.09,0,0,0-3-1.72c-.76-.25-2.65-.92-2.65-.92-.56-1.42-.52-2-1.5-2.65s-2.5-1.35-2.92-2.17-2.84-1.86-3.26-2.09-.25-.84-.25-1.25a5,5,0,0,1,.25-1.16,12.91,12.91,0,0,0-2.08-1.83,8.12,8.12,0,0,1,1.65-2.61,14.37,14.37,0,0,1,0-5.64c-1.05-2.58-1.79-4.16-2.53-4.68,1-5.3.57-5.3,1.2-6.33s.79-3.93,1-5.07a19,19,0,0,1,1.34-3.53,15.14,15.14,0,0,1,2.29-3.07l1.53-2.73a15,15,0,0,1-.53-5.8,2.78,2.78,0,0,1,.56-2.09,4.26,4.26,0,0,0,1.56-3.44c-.08-1.77.12-3.29,1.25-3a4.09,4.09,0,0,0,3.14-.52,4.91,4.91,0,0,0,2.19-2.28,7.52,7.52,0,0,1,2.8-3.76c2-1.45,3.91-3.34,4.73-3.53a4,4,0,0,0,1.94-1.78c.38-.58.26-.69.26-.69.71.28,1.37.32,1.58-.41.33,2.45.21,1.91,1.07,2.5s.93,1,.88,1.63,0,2.36,0,2.36a3.27,3.27,0,0,0,2.92.24c.62-.22,3.16-1.23,3.59-1.08a9.45,9.45,0,0,1,1.5,1.25c1.24-.24,3.57-.56,3.57-.56.61-.54.85-.92.42-1.43a7.63,7.63,0,0,1-1.34-2.58c0-.61,0-1.64,0-1.64.44-1.11,1-1.57,1.72-1.63a7.76,7.76,0,0,0,2.88-.61c.4-.37,2.4-1.55,2.4-1.55,0-1.42-.08-2.88.5-3.46a8.13,8.13,0,0,0,1.16-1.87c-1.05-2.29-1.89-4.06-2.16-4.75a12.72,12.72,0,0,0-1.9-3.53c-.5-.4-.56-.55-.53-.6-1,1.72-2.05,4.62-2.57,4.3a1.11,1.11,0,0,0-1.6.56c-.21.69-.15.69-.15.69-1.46-1.06-2.06-1-2.59-1.84a16.73,16.73,0,0,0-1.74-2.29c-.47-.54-.41-.54-.41-.54a10.1,10.1,0,0,0,.73-3.76c-1-.31-1.4,0-.64-.71s.79-.93.54-1.87a9.77,9.77,0,0,1-.22-2.37l.25-1.2c1,.56,1.29.31,1.41.24a7.34,7.34,0,0,0,.85-.81,12.94,12.94,0,0,1-.44-3.68c-1.28-1.42-.77-1.63-2.21-1.48s-3.78.15-3.78.15a14.35,14.35,0,0,0-2.57-4.6c.14,1.67-.23,3.18.4,3.93s.28,1.48,1,1.55.93.32,1.08.88,1.25,1.38,0,1.2a1.87,1.87,0,0,1-1.77-1.57c-.89.69-1.31.3-1.72-.22,0,1.82.06,2.53.68,2.82a6.23,6.23,0,0,1,1.77,2.88,25.67,25.67,0,0,0,3,4.45c.35.39,1.64-.15,1.58.66s.69,2.92-.06,2.8-2.19.32-1.81,1.25,1.74,2.64,1.38,3.3l-.25.91c.89,0,1.26-.54,1.82.1s.54,1,0,.85-1.35.53-.62.74,1.16-.34,1.6.93.65,2,.18,1.7-2.1-1.12-2.5-1.33c0-.83,0-1.49,0-1.49-.66.59-.69.54-1.32.12s-1.82-1-2.44-1.44a5.69,5.69,0,0,1-1.57-1.4,14.18,14.18,0,0,0-.91-1.26,33.07,33.07,0,0,1-7-1.62,9.62,9.62,0,0,0-1.75-.73c-.92,1.1-.88,1.25,0,2.16.41,1,2.5,1.55,2.5,1.55s5.31,2.19,6.86,2,1,.15,1,.15l.26.58c-.93-.17-2.33-.49-1.75.23s2,1.49,1.84,2a10.73,10.73,0,0,0,.41,2.68,1.8,1.8,0,0,1-1.15-1.35c-.23-1-1.42-1.77-1.78-2.06l-1.44-.22a2.3,2.3,0,0,0-1.48-.25,2,2,0,0,1-1.4-.37l-1.29,0a2.18,2.18,0,0,1-1.16-.49c-.39-.39-1.94-1.35-2.29-1.72s-1.19-.1-1.66.1a30.68,30.68,0,0,0-.78,3c-.1.84-.62,1-1.56,1.08a4.89,4.89,0,0,1-1.56,1.09,22.71,22.71,0,0,1,1.32,2.89s-1,1.87-1.34,2.58,0,1.35,0,2.24a3.31,3.31,0,0,0,.73,1.78l.54.58a9.48,9.48,0,0,0,0,1.72,7.89,7.89,0,0,1-.8,3.37,4.25,4.25,0,0,1-2,1.1c-1.38.37-1.25,1.18-1.25,1.18a1.22,1.22,0,0,1-.5,1,10.49,10.49,0,0,1-2.33-1.33c-.69-.69-2.28.69-3.08,1.08,0,0-.45-1.74-.66-2.26s-.42-.84-1.08-.84-.62-.78-.62-1.25-.94-3.91-1.1-4.43a3.89,3.89,0,0,0-1.29-1.87c-.68-.46.42-2.28.42-2.28a1.85,1.85,0,0,1,.81-.41,5.92,5.92,0,0,1,2.4-.69c2.44-.69,3.65-1.67,4.37-1.48-.57-1.55-2-5.35-2.16-5.74-.85-.23-1.78.12-1.66-1.33-1.75.17-2.43-.19-2.83.22-1.05-.41-1.54-.71-1.16-1.53s2.74-1.27,2.74-1.27l-1.58-1.74a10.18,10.18,0,0,1,1.82-.45c.62,0,.62-1.16.49-1.94s-.65-.57.07-1.78.36-3.16.1-4.26.25-1.35,1-1.85c0,0-.87-2.6-1.09-3.39s-1.78-2.06-2.61-2.45-.56-1.35-.22-2.63l1.35,1.81s0,0,.64.08.34,0,.36,1,.68,1.35,1.36,1.78a6.77,6.77,0,0,0,1.72-.84c.71-.52,1.77-.19,2.73.26,0,0,.33-2.13.39-2.69a1.06,1.06,0,0,1,1.54-.64s-.14-1.82-.14-2.15-.84-1.23-1-1.66a2.54,2.54,0,0,0-1.25-1c-.58-.19-1-1-1.33-1.23-.49-.45.61-.62,1.17-.55,1.15.15.94-.14.37-.41a18.27,18.27,0,0,0-2-1.14,4.54,4.54,0,0,1-1.5-1c-.57-.47.66-2.38,1.18-2.38s0-1-.19-1.87-1.06-.08-1.82-.08a4.48,4.48,0,0,1-.11,1.33,18.89,18.89,0,0,0-.3,2.58s-.49,0-1.53-.19-1.35-.73-2.65-1.77a11.8,11.8,0,0,1-3.19-4.06c-1.09-2-1.46-1.38-2.81-1.64-1,1.25,1.05,2.18,1.85,2.75s.87,1.68,1.24,3.23c0,0,2.37,2.24,3.43,3.18a6.52,6.52,0,0,1,2.24.58c1,.52.19,2.32.24,2.86s2.36,2.36,3.14,3,.57,1.11-.22,1.46a1.11,1.11,0,0,1,0,1.77c-.76.54.34.81.09,1s-1.68-1.53-2-2.41-3-2-3.54-2.56-.83-1.16-1.88-1.16c-.46-.26-.81-.29-.46.64s0,1.14.46,2.28-.4,1-2.17.62a29.38,29.38,0,0,0-2.83-2.71c-1.29-1-2.59-6.15-2.69-7.2a5,5,0,0,0-1.51-3.46,14.63,14.63,0,0,1-2.87-5.16c-.25-1-.81-.47-.37-1.35a7.12,7.12,0,0,0,0-3.93c-.26-.69.22-1.18,1.25-.34s1.25.6,1.57-.17a34.31,34.31,0,0,0,3.74-1,1.94,1.94,0,0,1,2.56.63c.41.84.84.94,1,1.55s-1.4.94-2.32,1.55a38.29,38.29,0,0,1,5.33,1.33l1.67-.64a5.71,5.71,0,0,0-1.51-1c-.46-.1-2.12-2.15-2.6-2.29s-.72-1.15,0-1.05-.53-1.08-1-1-2.49-.72-3.12-.66-.56-.75.28-1.31,1.5.52,2.33.73,0-1.1-.88-1.1-1.57-1.48-2-1.82-3-2.33-3.59-2.92c0,0-2.07-1.08-2.38-1.81s-3.44-2.36-4.59-2.36-1.91-.47-1.91-1.2l2.07.64s2.91-.15,4,.49,2.91.34,4.38.76,1-.73-.22-1.25-2.29-1.5-3.7-2-1.64.23-1,.88.36.52-2.25.47-1.42-.26-1.72-.69-.25-.69-1.91-.84-1.15-.88-1.49-1.42c0,0-1.4,1-2.11.67a11.88,11.88,0,0,0-3.65-.88,14,14,0,0,1-3-.75,27.2,27.2,0,0,1-4.39-1,5.94,5.94,0,0,0-3.49-.17c-.84.32-.93-.76-1.71-1.3s.52-.62,1.47-.66.93,0,4,0-.32-.79-1.48-.47-3.43-.73-5.3-.73a19.75,19.75,0,0,1-4.16-.6,12.62,12.62,0,0,1-3.36-1.53c-.73.64-5.61.45-6.74.72s-4.07-.27-4.59.14-3.12.62-4.28.42-1.87.56-2.28.56-1.84.52-2.55.22-.89-.26-2.2.27a6.15,6.15,0,0,0-2,.39c-.4.27-1.13.32-1.35.47a4.58,4.58,0,0,1-1.6.56,1.55,1.55,0,0,0-1.3.49,2.88,2.88,0,0,1-1.57.52s-1.41.15-1.62.56-.78.52-1.4.52a3.34,3.34,0,0,0-1.93.69,1.78,1.78,0,0,1-1,.38c-.37.46-2.19.71-2.19.71s-1.14.41-1.24.63-.78.1-1.36.1-.92.32-1.43.73c0-.37-.29-.56-.69-.54s-.39-.3-.39-.3l.44-.14c.44-.17.88-.32,1-.38a4.69,4.69,0,0,1,1.2-.46c.37,0,1.32-.57,1.83-.64,2.24-.32,2.38-1.05,1.43-1-.67.08-1.12.3-1.39.08s-.53-.13-.94-.1-.42.17-.35,0a1.59,1.59,0,0,1,.87-.63,2.43,2.43,0,0,0,1-.64,2.69,2.69,0,0,1,1.15-1c.48-.15,1.09-.09,1.41-.37a4.52,4.52,0,0,1,1.82-.78,3.77,3.77,0,0,0,1.3-.47s-.68.13.32-.13,3.84-.86,4.41-1,1.83-.32,2.28-.49,2.87-.75,2.87-.75a123.11,123.11,0,0,1,20.27-1.72A120.4,120.4,0,0,1,361.84,198c.47.75,1.69,3.84,0,2.51s-2-.69-1.41.09,1,2.36,1.58,2.58a4.31,4.31,0,0,1,1.86,2.19c.32.81,1.72,1.91.84,0a16.13,16.13,0,0,1-1.19-3.85l0-.25a119.44,119.44,0,0,1,8.89,23s.41,2.06.57,2.77.09,3,.44,4.3c.64,2.34.32,2.8.32,2.8s-.46-1.55-.78-2.38-.6-2.35-1.24-2.87a15,15,0,0,1-2.13-3.12c-.17-.42-.89-2-1.62-2.34s-1.66-2.21-1.82-2.63a2.33,2.33,0,0,0-1.72-1.85,11.66,11.66,0,0,1-3.52-2.24c.21.62.08.91-2.22-1.1.46.39,2.45,3.21,3.29,4.17a28,28,0,0,1,2.76,3.36,3.05,3.05,0,0,0,2.14,1.82c1,.1,1.9,2.51,2,3.34a7,7,0,0,0,1.72,2.71,23.4,23.4,0,0,0,2.11,2.71c1.16,1.12.86,2.09,2.11,3.85,0-.8-.31-3.44-.34-4.41a120.72,120.72,0,0,1-29.1,103.83,23.09,23.09,0,0,1,2.95-4.33,10.19,10.19,0,0,0,1.77-3.4c.56-1.38,1.77-2.32,1.56-3.76A6.67,6.67,0,0,1,352.23,322.29ZM324.88,220.46c.32-.34.39-.76.72-.09,0,0,.26.84,0,.61S324.56,220.83,324.88,220.46Zm3.07-9.68c-.1-.58.52.56.69.93a1.45,1.45,0,0,1,.56,1c.06.64.75,1.25.94,1.53a2.8,2.8,0,0,1,1,1.2c.26.73.71.79,1.18,1.38s0,.66-.32,1.48-.76-.89-.92-1.31a4.46,4.46,0,0,0-1.49-1.62c-.47-.21-.3-.47-.23-.94a3.2,3.2,0,0,0-.09-1.18,10.64,10.64,0,0,0-1.2-.93C327.7,212,328.06,211.35,328,210.79ZM336.7,217c.16-.29.47-.29.73-.76a10.19,10.19,0,0,1,.84-1.2c.3.19,1.08,1,1.4,1.25a.8.8,0,0,1-.26,1.25c-.57.21-1.48-.34-2,0A.47.47,0,0,1,336.7,217Z" fill="#fff" fill-rule="evenodd"/></svg>